<svg width="261" height="273" viewBox="0 0 261 273" fill="none" xmlns="http://www.w3.org/2000/svg">
<path style="mix-blend-mode:screen" d="M243.741 258.449L248.138 255.863V255.067L243.065 258.051L219.769 244.339L243.051 230.648L248.138 233.645V232.85L243.727 230.25L248.138 227.657V226.861L243.051 229.852L219.755 216.14L243.031 202.449L248.138 205.453V204.658L243.707 202.051L248.138 199.445V198.649L243.031 201.653L219.742 187.941L243.017 174.25L248.138 177.268V176.473L243.693 173.852L248.138 171.239V170.443L243.017 173.455L219.735 159.743L243.004 146.052L248.138 149.077V148.281L243.673 145.654L248.138 143.027V142.231L243.004 145.256L219.728 131.544L242.99 117.846L248.145 120.885V120.089L243.666 117.448L248.145 114.814V114.018L242.99 117.05L219.714 103.339L242.969 89.6404L248.138 92.686V91.8903L243.645 89.2426L248.138 86.5949V85.7992L242.969 88.8447L219.701 75.1261L242.949 61.428L248.138 64.4873V63.6916L243.625 61.0302L248.138 58.3756V57.5799L242.949 60.6323L219.687 46.9137L242.935 33.2156L248.138 36.2817V35.486L243.611 32.8177L248.138 30.1495V29.3538L242.935 32.4199L219.68 18.7012L227.484 14.1055H226.132L219.004 18.3034L211.883 14.1055H210.531L218.328 18.7012L195.08 32.4062L171.825 18.6944L179.608 14.1055H178.257L171.149 18.2965L164.041 14.1055H162.689L170.473 18.6944L147.218 32.4062L123.97 18.7012L131.767 14.1055H130.415L123.294 18.3034L116.166 14.1055H114.814L122.618 18.7012L99.3627 32.4199L68.2968 14.0986H66.9449L98.7004 32.8109L75.4385 46.5295L55.9728 35.0607L55.6246 35.6506L74.7626 46.9274L51.4938 60.6529L49.9166 59.7269L49.5684 60.3168L50.8111 61.0507L13.2656 83.2064L13.6138 83.7963L51.5007 61.4486L74.7489 75.1398L51.4733 88.8653L43.8741 84.3931L43.5259 84.9829L50.7974 89.2632L19.0487 107.982L19.3969 108.572L51.4733 89.661L74.7216 103.352L51.446 117.071L37.818 109.052L37.4698 109.642L50.7633 117.469L24.8249 132.758L25.1731 133.348L51.4392 117.867L74.6943 131.558L51.4119 145.276L31.7618 133.712L31.4136 134.302L50.736 145.667L30.6079 157.527L30.9562 158.117L51.4119 146.065L74.6738 159.75L51.3846 173.468L25.7125 158.364L25.3643 158.954L50.7086 173.859L36.391 182.296L36.7392 182.886L51.3846 174.257L74.6533 187.941L51.3573 201.66L19.6563 183.016L19.3081 183.606L50.6745 202.051L42.1672 207.058L42.5154 207.648L51.3504 202.442L74.6192 216.126L51.3231 229.845L13.6138 207.703L13.2656 208.293L50.6609 230.277L47.9639 231.862L48.3121 232.452L51.3368 230.668L74.6124 244.353L53.747 256.638L54.0952 257.228L75.2951 244.75L98.5775 258.442L70.864 274.746H72.2158L99.2535 258.84L122.543 272.531L118.774 274.746H120.126L123.219 272.922L126.318 274.746H127.67L123.895 272.531L147.191 258.826L170.487 272.524L166.704 274.753H168.056L171.163 272.922L174.269 274.753H175.621L171.839 272.524L195.135 258.826L218.431 272.531L214.655 274.746H216.007L219.107 272.922L222.2 274.746H223.551L219.783 272.531L243.072 258.84L248.145 261.823V261.028L243.748 258.442L243.741 258.449ZM242.375 230.25L219.093 243.941L195.797 230.236L219.079 216.538L242.375 230.25ZM170.48 159.729L147.204 173.434L123.929 159.736L147.204 146.024L170.48 159.729ZM123.942 131.53L147.218 117.819L170.487 131.524L147.211 145.228L123.942 131.53ZM171.156 160.127L194.431 173.832L171.156 187.53L147.88 173.832L171.156 160.127ZM147.88 145.626L171.156 131.921L194.431 145.626L171.156 159.331L147.88 145.626ZM147.88 117.421L171.149 103.716L194.418 117.421L171.149 131.126L147.88 117.421ZM147.88 89.2152L171.142 75.5034L194.404 89.2152L171.142 102.92L147.88 89.2152ZM170.466 103.318L147.197 117.023L123.936 103.325L147.204 89.613L170.466 103.318ZM123.26 102.927L100.005 89.2289L123.273 75.5102L146.528 89.2083L123.26 102.92V102.927ZM123.26 103.723L146.522 117.421L123.246 131.133L99.984 117.434L123.26 103.723ZM146.515 145.626L123.239 159.338L99.9704 145.64L123.246 131.928L146.515 145.626ZM146.515 173.832L123.232 187.544L99.9567 173.852L123.239 160.141L146.515 173.839V173.832ZM146.515 202.031L123.225 215.735L99.9499 202.044L123.239 188.332L146.515 202.031ZM123.915 187.935L147.197 174.23L170.473 187.928L147.191 201.633L123.915 187.935ZM171.149 188.326L194.431 202.031L171.149 215.729L147.867 202.031L171.149 188.326ZM171.825 187.928L195.101 174.23L218.383 187.935L195.107 201.633L171.825 187.928ZM171.825 159.729L195.101 146.024L218.376 159.736L195.101 173.434L171.825 159.729ZM171.825 131.524L195.094 117.819L218.369 131.53L195.101 145.228L171.825 131.524ZM171.825 103.318L195.087 89.613L218.356 103.325L195.094 117.023L171.825 103.318ZM171.825 75.1124L195.08 61.4074L218.342 75.1192L195.087 88.8173L171.825 75.1055V75.1124ZM171.149 74.7145L147.894 61.0096L171.149 47.2978L194.404 61.0096L171.149 74.7145ZM170.473 75.1124L147.211 88.8242L123.956 75.1261L147.218 61.4143L170.473 75.1192V75.1124ZM123.28 74.7214L100.032 61.0233L123.294 47.3046L146.542 61.0096L123.28 74.7214ZM122.604 75.1192L99.3354 88.8379L76.0871 75.1467L99.3559 61.428L122.604 75.1261V75.1192ZM122.59 103.325L99.3149 117.037L76.0598 103.345L99.3354 89.6267L122.59 103.325ZM99.3149 117.832L122.577 131.53L99.3013 145.242L76.0394 131.551L99.3149 117.832ZM99.3013 146.038L122.57 159.729L99.2876 173.441L76.0189 159.75L99.3013 146.031V146.038ZM99.2876 174.243L122.563 187.935L99.274 201.646L75.9984 187.955L99.2876 174.237V174.243ZM122.55 216.14L99.2535 229.852L75.9779 216.161L99.274 202.449L122.55 216.14ZM123.225 216.538L146.508 230.236L123.212 243.941L99.9294 230.25L123.225 216.538ZM123.901 216.14L147.191 202.435L170.473 216.133L147.184 229.838L123.901 216.14ZM171.149 216.531L194.438 230.236L171.149 243.934L147.86 230.236L171.149 216.531ZM171.825 216.133L195.107 202.435L218.397 216.14L195.114 229.838L171.825 216.133ZM242.348 202.051L219.072 215.742L195.783 202.037L219.059 188.339L242.348 202.051ZM242.334 173.852L219.059 187.544L195.776 173.832L219.052 160.134L242.334 173.846V173.852ZM242.321 145.647L219.052 159.345L195.776 145.633L219.045 131.935L242.321 145.647ZM242.307 117.441L219.045 131.139L195.77 117.428L219.032 103.729L242.307 117.441ZM242.293 89.2357L219.038 102.934L195.77 89.222L219.025 75.5239L242.293 89.2426V89.2357ZM242.28 61.0233L219.032 74.7214L195.77 61.0096L219.018 47.3046L242.28 61.0233ZM219.004 19.0922L242.259 32.8109L219.011 46.509L195.756 32.7972L219.004 19.0922ZM218.342 46.9068L195.087 60.6117L171.832 46.8999L195.087 33.195L218.342 46.9068ZM171.156 19.0854L194.411 32.7972L171.156 46.5021L147.901 32.7972L171.156 19.0854ZM170.48 46.8999L147.225 60.6117L123.97 46.9068L147.225 33.195L170.48 46.8999ZM123.307 19.0922L146.556 32.7972L123.301 46.509L100.052 32.8109L123.307 19.0922ZM99.3764 33.2087L122.625 46.9068L99.3627 60.6255L76.1145 46.9274L99.3764 33.2087ZM52.1698 61.0507L75.4385 47.3252L98.6868 61.0233L75.418 74.742L52.1698 61.0507ZM52.1425 89.2632L75.418 75.5377L98.6663 89.2289L75.3907 102.948L52.1425 89.2563V89.2632ZM52.1151 117.469L75.3907 103.75L98.6458 117.441L75.3702 131.16L52.1151 117.469ZM52.0878 145.674L75.3702 131.956L98.6322 145.647L75.3498 159.366L52.0878 145.674ZM52.0605 173.88L75.3498 160.161L98.6185 173.852L75.3293 187.571L52.0605 173.887V173.88ZM52.0332 202.079L75.3293 188.36L98.6048 202.051L75.3088 215.763L52.0332 202.079ZM75.2815 243.962L52.0059 230.277L75.302 216.559L98.5775 230.25L75.2815 243.962ZM75.9574 244.359L99.2535 230.648L122.536 244.339L99.2398 258.051L75.9574 244.359ZM123.205 272.133L99.9158 258.442L123.212 244.73L146.501 258.428L123.205 272.133ZM147.177 258.03L123.888 244.332L147.184 230.627L170.473 244.325L147.177 258.03ZM171.149 272.126L147.853 258.428L171.149 244.723L194.445 258.428L171.149 272.126ZM171.825 244.325L195.114 230.627L218.41 244.332L195.121 258.03L171.825 244.325ZM219.093 272.133L195.797 258.428L219.086 244.73L242.382 258.442L219.093 272.133Z" fill="url(#paint0_radial_2178_4525)"/>
<g opacity="0.5">
<path style="mix-blend-mode:screen" d="M243.741 258.449L248.138 255.863V255.067L243.065 258.051L219.769 244.339L243.051 230.648L248.138 233.645V232.85L243.727 230.25L248.138 227.657V226.861L243.051 229.852L219.755 216.14L243.031 202.449L248.138 205.453V204.658L243.707 202.051L248.138 199.445V198.649L243.031 201.653L219.742 187.941L243.017 174.25L248.138 177.268V176.473L243.693 173.852L248.138 171.239V170.443L243.017 173.455L219.735 159.743L243.004 146.052L248.138 149.077V148.281L243.673 145.654L248.138 143.027V142.231L243.004 145.256L219.728 131.544L242.99 117.846L248.145 120.885V120.089L243.666 117.448L248.145 114.814V114.018L242.99 117.05L219.714 103.339L242.969 89.6404L248.138 92.686V91.8903L243.645 89.2426L248.138 86.5949V85.7992L242.969 88.8447L219.701 75.1261L242.949 61.428L248.138 64.4873V63.6916L243.625 61.0302L248.138 58.3756V57.5799L242.949 60.6323L219.687 46.9137L242.935 33.2156L248.138 36.2817V35.486L243.611 32.8177L248.138 30.1495V29.3538L242.935 32.4199L219.68 18.7012L227.484 14.1055H226.132L219.004 18.3034L211.883 14.1055H210.531L218.328 18.7012L195.08 32.4062L171.825 18.6944L179.608 14.1055H178.257L171.149 18.2965L164.041 14.1055H162.689L170.473 18.6944L147.218 32.4062L123.97 18.7012L131.767 14.1055H130.415L123.294 18.3034L116.166 14.1055H114.814L122.618 18.7012L99.3627 32.4199L68.2968 14.0986H66.9449L98.7004 32.8109L75.4385 46.5295L55.9728 35.0607L55.6246 35.6506L74.7626 46.9274L51.4938 60.6529L49.9166 59.7269L49.5684 60.3168L50.8111 61.0507L13.2656 83.2064L13.6138 83.7963L51.5007 61.4486L74.7489 75.1398L51.4733 88.8653L43.8741 84.3931L43.5259 84.9829L50.7974 89.2632L19.0487 107.982L19.3969 108.572L51.4733 89.661L74.7216 103.352L51.446 117.071L37.818 109.052L37.4698 109.642L50.7633 117.469L24.8249 132.758L25.1731 133.348L51.4392 117.867L74.6943 131.558L51.4119 145.276L31.7618 133.712L31.4136 134.302L50.736 145.667L30.6079 157.527L30.9562 158.117L51.4119 146.065L74.6738 159.75L51.3846 173.468L25.7125 158.364L25.3643 158.954L50.7086 173.859L36.391 182.296L36.7392 182.886L51.3846 174.257L74.6533 187.941L51.3573 201.66L19.6563 183.016L19.3081 183.606L50.6745 202.051L42.1672 207.058L42.5154 207.648L51.3504 202.442L74.6192 216.126L51.3231 229.845L13.6138 207.703L13.2656 208.293L50.6609 230.277L47.9639 231.862L48.3121 232.452L51.3368 230.668L74.6124 244.353L53.747 256.638L54.0952 257.228L75.2951 244.75L98.5775 258.442L70.864 274.746H72.2158L99.2535 258.84L122.543 272.531L118.774 274.746H120.126L123.219 272.922L126.318 274.746H127.67L123.895 272.531L147.191 258.826L170.487 272.524L166.704 274.753H168.056L171.163 272.922L174.269 274.753H175.621L171.839 272.524L195.135 258.826L218.431 272.531L214.655 274.746H216.007L219.107 272.922L222.2 274.746H223.551L219.783 272.531L243.072 258.84L248.145 261.823V261.028L243.748 258.442L243.741 258.449ZM242.375 230.25L219.093 243.941L195.797 230.236L219.079 216.538L242.375 230.25ZM170.48 159.729L147.204 173.434L123.929 159.736L147.204 146.024L170.48 159.729ZM123.942 131.53L147.218 117.819L170.487 131.524L147.211 145.228L123.942 131.53ZM171.156 160.127L194.431 173.832L171.156 187.53L147.88 173.832L171.156 160.127ZM147.88 145.626L171.156 131.921L194.431 145.626L171.156 159.331L147.88 145.626ZM147.88 117.421L171.149 103.716L194.418 117.421L171.149 131.126L147.88 117.421ZM147.88 89.2152L171.142 75.5034L194.404 89.2152L171.142 102.92L147.88 89.2152ZM170.466 103.318L147.197 117.023L123.936 103.325L147.204 89.613L170.466 103.318ZM123.26 102.927L100.005 89.2289L123.273 75.5102L146.528 89.2083L123.26 102.92V102.927ZM123.26 103.723L146.522 117.421L123.246 131.133L99.984 117.434L123.26 103.723ZM146.515 145.626L123.239 159.338L99.9704 145.64L123.246 131.928L146.515 145.626ZM146.515 173.832L123.232 187.544L99.9567 173.852L123.239 160.141L146.515 173.839V173.832ZM146.515 202.031L123.225 215.735L99.9499 202.044L123.239 188.332L146.515 202.031ZM123.915 187.935L147.197 174.23L170.473 187.928L147.191 201.633L123.915 187.935ZM171.149 188.326L194.431 202.031L171.149 215.729L147.867 202.031L171.149 188.326ZM171.825 187.928L195.101 174.23L218.383 187.935L195.107 201.633L171.825 187.928ZM171.825 159.729L195.101 146.024L218.376 159.736L195.101 173.434L171.825 159.729ZM171.825 131.524L195.094 117.819L218.369 131.53L195.101 145.228L171.825 131.524ZM171.825 103.318L195.087 89.613L218.356 103.325L195.094 117.023L171.825 103.318ZM171.825 75.1124L195.08 61.4074L218.342 75.1192L195.087 88.8173L171.825 75.1055V75.1124ZM171.149 74.7145L147.894 61.0096L171.149 47.2978L194.404 61.0096L171.149 74.7145ZM170.473 75.1124L147.211 88.8242L123.956 75.1261L147.218 61.4143L170.473 75.1192V75.1124ZM123.28 74.7214L100.032 61.0233L123.294 47.3046L146.542 61.0096L123.28 74.7214ZM122.604 75.1192L99.3354 88.8379L76.0871 75.1467L99.3559 61.428L122.604 75.1261V75.1192ZM122.59 103.325L99.3149 117.037L76.0598 103.345L99.3354 89.6267L122.59 103.325ZM99.3149 117.832L122.577 131.53L99.3013 145.242L76.0394 131.551L99.3149 117.832ZM99.3013 146.038L122.57 159.729L99.2876 173.441L76.0189 159.75L99.3013 146.031V146.038ZM99.2876 174.243L122.563 187.935L99.274 201.646L75.9984 187.955L99.2876 174.237V174.243ZM122.55 216.14L99.2535 229.852L75.9779 216.161L99.274 202.449L122.55 216.14ZM123.225 216.538L146.508 230.236L123.212 243.941L99.9294 230.25L123.225 216.538ZM123.901 216.14L147.191 202.435L170.473 216.133L147.184 229.838L123.901 216.14ZM171.149 216.531L194.438 230.236L171.149 243.934L147.86 230.236L171.149 216.531ZM171.825 216.133L195.107 202.435L218.397 216.14L195.114 229.838L171.825 216.133ZM242.348 202.051L219.072 215.742L195.783 202.037L219.059 188.339L242.348 202.051ZM242.334 173.852L219.059 187.544L195.776 173.832L219.052 160.134L242.334 173.846V173.852ZM242.321 145.647L219.052 159.345L195.776 145.633L219.045 131.935L242.321 145.647ZM242.307 117.441L219.045 131.139L195.77 117.428L219.032 103.729L242.307 117.441ZM242.293 89.2357L219.038 102.934L195.77 89.222L219.025 75.5239L242.293 89.2426V89.2357ZM242.28 61.0233L219.032 74.7214L195.77 61.0096L219.018 47.3046L242.28 61.0233ZM219.004 19.0922L242.259 32.8109L219.011 46.509L195.756 32.7972L219.004 19.0922ZM218.342 46.9068L195.087 60.6117L171.832 46.8999L195.087 33.195L218.342 46.9068ZM171.156 19.0854L194.411 32.7972L171.156 46.5021L147.901 32.7972L171.156 19.0854ZM170.48 46.8999L147.225 60.6117L123.97 46.9068L147.225 33.195L170.48 46.8999ZM123.307 19.0922L146.556 32.7972L123.301 46.509L100.052 32.8109L123.307 19.0922ZM99.3764 33.2087L122.625 46.9068L99.3627 60.6255L76.1145 46.9274L99.3764 33.2087ZM52.1698 61.0507L75.4385 47.3252L98.6868 61.0233L75.418 74.742L52.1698 61.0507ZM52.1425 89.2632L75.418 75.5377L98.6663 89.2289L75.3907 102.948L52.1425 89.2563V89.2632ZM52.1151 117.469L75.3907 103.75L98.6458 117.441L75.3702 131.16L52.1151 117.469ZM52.0878 145.674L75.3702 131.956L98.6322 145.647L75.3498 159.366L52.0878 145.674ZM52.0605 173.88L75.3498 160.161L98.6185 173.852L75.3293 187.571L52.0605 173.887V173.88ZM52.0332 202.079L75.3293 188.36L98.6048 202.051L75.3088 215.763L52.0332 202.079ZM75.2815 243.962L52.0059 230.277L75.302 216.559L98.5775 230.25L75.2815 243.962ZM75.9574 244.359L99.2535 230.648L122.536 244.339L99.2398 258.051L75.9574 244.359ZM123.205 272.133L99.9158 258.442L123.212 244.73L146.501 258.428L123.205 272.133ZM147.177 258.03L123.888 244.332L147.184 230.627L170.473 244.325L147.177 258.03ZM171.149 272.126L147.853 258.428L171.149 244.723L194.445 258.428L171.149 272.126ZM171.825 244.325L195.114 230.627L218.41 244.332L195.121 258.03L171.825 244.325ZM219.093 272.133L195.797 258.428L219.086 244.73L242.382 258.442L219.093 272.133Z" fill="url(#paint1_radial_2178_4525)"/>
</g>
<g clip-path="url(#clip0_2178_4525)">
<path d="M116.432 237.781L74.9301 213.799C70.247 211.095 70.8366 206.368 76.2441 203.244L173.831 146.848C179.239 143.723 187.415 143.386 192.098 146.089L233.6 170.072C238.283 172.775 237.694 177.502 232.286 180.627L134.699 237.022C129.291 240.147 121.116 240.485 116.432 237.781Z" fill="url(#paint2_linear_2178_4525)"/>
<g filter="url(#filter0_d_2178_4525)">
<path d="M116.433 237.073L74.9309 213.091C72.842 211.882 71.7976 210.269 71.7695 208.577C71.7695 208.426 71.7695 205.172 71.7864 205.02C71.9604 203.058 73.4653 204.137 76.2393 202.536L173.827 146.14C179.234 143.015 187.41 142.678 192.093 145.381L233.595 169.364C235.684 170.572 236.723 168.448 236.757 170.139C236.757 170.285 236.757 174.169 236.74 174.321C236.571 176.282 235.066 178.317 232.281 179.924L134.694 236.32C129.286 239.445 121.111 239.782 116.428 237.079L116.433 237.073Z" fill="url(#paint3_linear_2178_4525)"/>
</g>
<path d="M116.432 233.51L74.9301 209.527C70.247 206.824 70.8366 202.097 76.2441 198.972L173.831 142.577C179.239 139.452 187.415 139.114 192.098 141.818L233.6 165.8C238.283 168.504 237.694 173.23 232.286 176.355L134.699 232.751C129.291 235.876 121.116 236.213 116.432 233.51Z" fill="url(#paint4_linear_2178_4525)"/>
<path style="mix-blend-mode:color-dodge" d="M74.9362 209.061L116.438 233.043C121.122 235.747 129.297 235.409 134.705 232.284L232.292 175.889C235.139 174.242 236.644 172.157 236.756 170.15C236.874 172.292 235.358 174.579 232.292 176.355L134.705 232.751C129.297 235.876 121.122 236.213 116.438 233.51L74.9362 209.527C72.7182 208.246 71.685 206.509 71.786 204.71C71.8759 206.346 72.9147 207.892 74.9362 209.061Z" fill="url(#paint5_radial_2178_4525)"/>
<path d="M77.3395 199.675L175.045 143.212C179.784 140.475 186.949 140.177 191.054 142.548L232.337 166.402C236.442 168.773 235.925 172.916 231.186 175.653L133.481 232.116C128.741 234.853 121.576 235.151 117.472 232.779L76.1884 208.926C72.0836 206.554 72.6002 202.412 77.3395 199.675Z" fill="url(#paint6_linear_2178_4525)"/>
<path d="M79.237 200.489L176.459 144.307C180.424 142.014 186.426 141.767 189.863 143.751L230.265 167.098C233.701 169.082 233.269 172.55 229.304 174.843L132.082 231.025C128.118 233.318 122.115 233.566 118.678 231.582L78.2768 208.234C74.8403 206.25 75.2726 202.783 79.237 200.489Z" fill="#1F0D3D"/>
<path d="M189.503 144.493C186.263 142.621 181.035 142.61 177.818 144.47L79.5231 201.276C76.3055 203.137 76.3224 206.16 79.5624 208.032L119.026 230.84C122.266 232.711 127.494 232.723 130.712 230.862L229.006 174.062C232.224 172.202 232.207 169.178 228.967 167.306L189.503 144.498V144.493Z" fill="#3D065F"/>
<path d="M124.907 231.447C126.967 231.447 128.888 230.991 130.32 230.165L228.614 173.365C229.906 172.617 230.619 171.673 230.619 170.701C230.619 169.729 229.895 168.756 228.581 167.997L189.117 145.19C187.663 144.352 185.72 143.886 183.642 143.886C181.564 143.886 179.661 144.341 178.235 145.167L79.9285 201.967C78.637 202.715 77.9238 203.659 77.9238 204.632C77.9238 205.604 78.6482 206.576 79.9622 207.335L119.426 230.143C120.88 230.98 122.823 231.447 124.901 231.447H124.907Z" fill="url(#paint7_linear_2178_4525)"/>
<path d="M213.856 190.126L218.382 187.512C218.949 187.186 219.404 186.309 219.404 185.556C219.404 184.803 218.943 184.455 218.382 184.78L213.856 187.394C213.289 187.72 212.834 188.597 212.834 189.35C212.834 190.103 213.294 190.452 213.856 190.126Z" fill="url(#paint8_linear_2178_4525)"/>
<path d="M213.856 190.126L218.382 187.512C218.949 187.186 219.404 186.309 219.404 185.556C219.404 184.803 218.943 184.455 218.382 184.78L213.856 187.394C213.289 187.72 212.834 188.597 212.834 189.35C212.834 190.103 213.294 190.452 213.856 190.126Z" fill="url(#paint9_linear_2178_4525)"/>
<path d="M213.452 189.985C213.53 189.985 213.626 189.957 213.727 189.901L218.253 187.288C218.736 187.007 219.14 186.22 219.14 185.562C219.14 185.27 219.05 184.933 218.792 184.933C218.713 184.933 218.618 184.961 218.517 185.017L213.991 187.63C213.508 187.911 213.104 188.698 213.104 189.356C213.104 189.648 213.193 189.985 213.452 189.985Z" fill="url(#paint10_linear_2178_4525)"/>
<path d="M205.782 194.796L210.308 192.183C210.875 191.857 211.33 190.98 211.33 190.227C211.33 189.474 210.869 189.125 210.308 189.451L205.782 192.065C205.215 192.391 204.76 193.268 204.76 194.021C204.76 194.774 205.22 195.122 205.782 194.796Z" fill="url(#paint11_linear_2178_4525)"/>
<path d="M205.782 194.796L210.308 192.183C210.875 191.857 211.33 190.98 211.33 190.227C211.33 189.474 210.869 189.125 210.308 189.451L205.782 192.065C205.215 192.391 204.76 193.268 204.76 194.021C204.76 194.774 205.22 195.122 205.782 194.796Z" fill="url(#paint12_linear_2178_4525)"/>
<path d="M205.372 194.649C205.45 194.649 205.546 194.621 205.647 194.565L210.173 191.952C210.656 191.671 211.06 190.884 211.06 190.226C211.06 189.934 210.97 189.597 210.712 189.597C210.633 189.597 210.538 189.625 210.437 189.687L205.911 192.3C205.428 192.581 205.023 193.368 205.023 194.026C205.023 194.318 205.113 194.655 205.372 194.655V194.649Z" fill="url(#paint13_linear_2178_4525)"/>
<g style="mix-blend-mode:color-dodge">
<path d="M166.357 214.541L232.286 176.271C235.066 174.664 236.576 172.629 236.744 170.668C236.75 170.6 236.756 169.813 236.756 168.937C236.756 168.953 236.756 173.011 236.744 173.163C236.576 175.125 235.071 177.159 232.286 178.767L166.357 214.546V214.541Z" fill="#3D065F"/>
</g>
<path style="mix-blend-mode:color-dodge" d="M214.852 208.732C230.014 202.396 238.898 189.093 234.696 179.019C230.494 168.945 214.797 165.914 199.635 172.25C184.473 178.585 175.588 191.889 179.79 201.963C183.992 212.037 199.69 215.068 214.852 208.732Z" fill="url(#paint14_radial_2178_4525)"/>
<path style="mix-blend-mode:color-dodge" d="M141.046 240.767C143.204 235.513 138.541 228.617 130.633 225.364C122.725 222.111 114.565 223.733 112.408 228.988C110.251 234.242 114.913 241.138 122.821 244.391C130.73 247.644 138.889 246.021 141.046 240.767Z" fill="url(#paint15_radial_2178_4525)"/>
<path d="M124.67 214.153L108.375 204.654L92.0625 214.057L108.375 223.561L124.67 214.153Z" fill="url(#paint16_linear_2178_4525)"/>
<path d="M108.38 210.269V204.66L108.375 204.654L92.0625 214.057L96.9085 216.884L108.38 210.269Z" fill="url(#paint17_linear_2178_4525)"/>
<path d="M124.67 214.153L108.375 204.654V210.269L119.83 216.946L124.67 214.153Z" fill="url(#paint18_linear_2178_4525)"/>
<path d="M157.311 214.243L141.015 204.744L124.703 214.147L141.015 223.657L157.311 214.243Z" fill="url(#paint19_linear_2178_4525)"/>
<path d="M141.027 210.365V204.75L141.015 204.744L124.703 214.147L129.549 216.974L141.027 210.365Z" fill="url(#paint20_linear_2178_4525)"/>
<path d="M157.311 214.243L141.016 204.744V210.365L152.471 217.042L157.311 214.243Z" fill="url(#paint21_linear_2178_4525)"/>
<path d="M140.981 204.739L124.685 195.24L108.373 204.643L124.685 214.147L140.981 204.739Z" fill="url(#paint22_linear_2178_4525)"/>
<path d="M124.691 200.855V195.246L124.685 195.24L108.373 204.643L113.219 207.47L124.691 200.855Z" fill="url(#paint23_linear_2178_4525)"/>
<path d="M140.981 204.739L124.686 195.24V200.855L136.141 207.532L140.981 204.739Z" fill="url(#paint24_linear_2178_4525)"/>
<path d="M124.698 195.251L108.402 185.753L92.0898 195.156L108.402 204.666L124.698 195.251Z" fill="url(#paint25_linear_2178_4525)"/>
<path d="M108.408 191.373V185.759L108.402 185.753L92.0898 195.156L96.9358 197.983L108.408 191.373Z" fill="url(#paint26_linear_2178_4525)"/>
<path d="M124.698 195.251L108.402 185.753V191.373L119.857 198.05L124.698 195.251Z" fill="url(#paint27_linear_2178_4525)"/>
<path d="M157.293 195.325L140.998 185.826L124.686 195.229L140.998 204.733L157.293 195.325Z" fill="url(#paint28_linear_2178_4525)"/>
<path d="M141.003 191.441V185.832L140.998 185.826L124.686 195.229L129.532 198.056L141.003 191.441Z" fill="url(#paint29_linear_2178_4525)"/>
<path d="M157.293 195.325L140.998 185.826V191.441L152.453 198.118L157.293 195.325Z" fill="url(#paint30_linear_2178_4525)"/>
<path d="M141.01 185.837L124.715 176.339L108.402 185.742L124.715 195.252L141.01 185.837Z" fill="url(#paint31_linear_2178_4525)"/>
<path d="M124.72 181.959V176.344L124.715 176.339L108.402 185.742L113.248 188.569L124.72 181.959Z" fill="url(#paint32_linear_2178_4525)"/>
<path d="M141.01 185.837L124.715 176.339V181.959L136.17 188.636L141.01 185.837Z" fill="url(#paint33_linear_2178_4525)"/>
<path d="M189.936 195.415L173.64 185.916L157.328 195.319L173.64 204.829L189.936 195.415Z" fill="url(#paint34_linear_2178_4525)"/>
<path d="M173.652 191.536V185.922L173.64 185.916L157.328 195.319L162.174 198.146L173.652 191.536Z" fill="url(#paint35_linear_2178_4525)"/>
<path d="M189.936 195.415L173.641 185.916V191.536L185.096 198.214L189.936 195.415Z" fill="url(#paint36_linear_2178_4525)"/>
<path d="M173.606 185.91L157.31 176.411L140.998 185.814L157.31 195.318L173.606 185.91Z" fill="url(#paint37_linear_2178_4525)"/>
<path d="M157.316 182.026V176.417L157.31 176.411L140.998 185.814L145.844 188.641L157.316 182.026Z" fill="url(#paint38_linear_2178_4525)"/>
<path d="M173.606 185.91L157.311 176.411V182.026L168.766 188.703L173.606 185.91Z" fill="url(#paint39_linear_2178_4525)"/>
<path d="M157.323 176.422L141.027 166.924L124.715 176.327L141.027 185.837L157.323 176.422Z" fill="url(#paint40_linear_2178_4525)"/>
<path d="M141.033 172.544V166.929L141.027 166.924L124.715 176.327L129.561 179.154L141.033 172.544Z" fill="url(#paint41_linear_2178_4525)"/>
<path d="M157.323 176.422L141.027 166.924V172.544L152.482 179.221L157.323 176.422Z" fill="url(#paint42_linear_2178_4525)"/>
<path d="M206.248 186L189.953 176.501L173.641 185.904L189.953 195.414L206.248 186Z" fill="url(#paint43_linear_2178_4525)"/>
<path d="M189.964 182.121V176.507L189.953 176.501L173.641 185.904L178.487 188.731L189.964 182.121Z" fill="url(#paint44_linear_2178_4525)"/>
<path d="M206.249 186L189.953 176.501V182.121L201.408 188.799L206.249 186Z" fill="url(#paint45_linear_2178_4525)"/>
<path d="M189.918 176.496L173.623 166.997L157.311 176.4L173.623 185.904L189.918 176.496Z" fill="url(#paint46_linear_2178_4525)"/>
<path d="M173.628 172.612V167.003L173.623 166.997L157.311 176.4L162.156 179.227L173.628 172.612Z" fill="url(#paint47_linear_2178_4525)"/>
<path d="M189.918 176.496L173.623 166.997V172.612L185.078 179.289L189.918 176.496Z" fill="url(#paint48_linear_2178_4525)"/>
<path d="M173.635 167.008L157.34 157.51L141.027 166.913L157.34 176.423L173.635 167.008Z" fill="url(#paint49_linear_2178_4525)"/>
<path d="M157.345 163.13V157.515L157.34 157.51L141.027 166.913L145.873 169.74L157.345 163.13Z" fill="url(#paint50_linear_2178_4525)"/>
<path d="M173.635 167.008L157.34 157.51V163.13L168.795 169.807L173.635 167.008Z" fill="url(#paint51_linear_2178_4525)"/>
<path d="M222.559 176.585L206.263 167.087L189.951 176.49L206.263 186L222.559 176.585Z" fill="url(#paint52_linear_2178_4525)"/>
<path d="M206.275 172.707V167.093L206.263 167.087L189.951 176.49L194.797 179.317L206.275 172.707Z" fill="url(#paint53_linear_2178_4525)"/>
<path d="M222.559 176.585L206.264 167.087V172.707L217.719 179.384L222.559 176.585Z" fill="url(#paint54_linear_2178_4525)"/>
<path d="M206.231 167.082L189.935 157.583L173.623 166.986L189.935 176.49L206.231 167.082Z" fill="url(#paint55_linear_2178_4525)"/>
<path d="M189.941 163.198V157.589L189.935 157.583L173.623 166.986L178.469 169.813L189.941 163.198Z" fill="url(#paint56_linear_2178_4525)"/>
<path d="M206.231 167.082L189.936 157.583V163.198L201.391 169.875L206.231 167.082Z" fill="url(#paint57_linear_2178_4525)"/>
<path d="M189.946 157.594L173.65 148.096L157.338 157.499L173.65 167.009L189.946 157.594Z" fill="url(#paint58_linear_2178_4525)"/>
<path d="M173.656 153.716V148.101L173.65 148.096L157.338 157.499L162.184 160.326L173.656 153.716Z" fill="url(#paint59_linear_2178_4525)"/>
<path d="M189.946 157.594L173.65 148.096V153.716L185.105 160.393L189.946 157.594Z" fill="url(#paint60_linear_2178_4525)"/>
<path style="mix-blend-mode:screen" opacity="0.7" d="M189.711 75.6484L173.539 85.1526L157.367 75.7327V158.19L173.533 167.621V167.627L173.539 167.621V167.627V167.621L189.711 158.117V75.6484Z" fill="url(#paint61_linear_2178_4525)"/>
<path style="mix-blend-mode:screen" opacity="0.7" d="M185.152 81.1064L173.54 87.9353L161.928 81.1627V160.849L173.534 167.622V167.628L173.54 167.622V167.628V167.622L185.152 160.799V81.1064Z" fill="url(#paint62_linear_2178_4525)"/>
<path d="M173.533 70.1292V86.5915L189.711 77.0873V60.625L173.533 70.1292Z" fill="url(#paint63_linear_2178_4525)"/>
<path d="M173.539 70.1296V86.5919L157.367 77.1551V60.7041L173.539 70.1296Z" fill="url(#paint64_linear_2178_4525)"/>
<path d="M157.367 60.7039L173.539 70.1294L189.711 60.6252L173.522 51.1885L157.367 60.7039Z" fill="url(#paint65_linear_2178_4525)"/>
<path style="mix-blend-mode:color-dodge" d="M173.898 69.8425C173.679 69.9718 173.404 69.9718 173.18 69.8425L157.581 60.7486L157.367 60.8723L173.18 70.2191C173.399 70.3483 173.674 70.3483 173.898 70.2191L189.705 60.7936L189.492 60.6699L173.898 69.8425Z" fill="url(#paint66_radial_2178_4525)"/>
<path style="mix-blend-mode:screen" d="M222.065 169.724L205.893 179.228L189.727 169.802V176.508L205.887 185.939V185.944L205.893 185.939L205.898 185.944V185.939L222.065 176.434V169.724Z" fill="url(#paint67_linear_2178_4525)"/>
<path style="mix-blend-mode:screen" d="M217.512 175.176L205.894 182.005L194.281 175.238V179.166L205.894 185.939V185.945V185.939L205.899 185.945V185.939L217.512 179.116V175.176Z" fill="url(#paint68_linear_2178_4525)"/>
<path d="M205.82 164.272V180.734L221.998 171.23V154.768L205.82 164.272Z" fill="url(#paint69_linear_2178_4525)"/>
<path d="M205.826 164.272V180.734L189.654 171.298V154.847L205.826 164.272Z" fill="url(#paint70_linear_2178_4525)"/>
<path d="M189.654 154.846L205.826 164.272L221.998 154.768L205.809 145.331L189.654 154.846Z" fill="url(#paint71_linear_2178_4525)"/>
<path style="mix-blend-mode:color-dodge" d="M206.186 163.985C205.967 164.114 205.691 164.114 205.467 163.985L189.868 154.891L189.654 155.015L205.467 164.362C205.686 164.491 205.961 164.491 206.186 164.362L221.992 154.936L221.779 154.812L206.186 163.985Z" fill="url(#paint72_radial_2178_4525)"/>
<path style="mix-blend-mode:screen" d="M173.568 130.263L157.397 139.767L141.225 130.341V167.183L157.391 176.614V176.62H157.397V176.614L173.568 167.116V130.263Z" fill="url(#paint73_linear_2178_4525)"/>
<path style="mix-blend-mode:screen" d="M169.01 135.721L157.397 142.544L145.785 135.777V169.842L157.392 176.621H157.397L169.01 169.792V135.721Z" fill="url(#paint74_linear_2178_4525)"/>
<path d="M157.402 124.811V141.273L173.58 131.769V115.307L157.402 124.811Z" fill="url(#paint75_linear_2178_4525)"/>
<path d="M157.408 124.811V141.274L141.242 131.837V115.386L157.408 124.811Z" fill="url(#paint76_linear_2178_4525)"/>
<path d="M141.242 115.386L157.408 124.811L173.58 115.307L157.392 105.87L141.242 115.386Z" fill="url(#paint77_linear_2178_4525)"/>
<path style="mix-blend-mode:color-dodge" d="M157.768 124.524C157.549 124.653 157.273 124.653 157.049 124.524L141.45 115.43L141.236 115.554L157.049 124.901C157.268 125.03 157.543 125.03 157.768 124.901L173.575 115.475L173.361 115.352L157.768 124.524Z" fill="url(#paint78_radial_2178_4525)"/>
<path style="mix-blend-mode:screen" d="M157.188 164.924L141.016 174.428L124.85 165.003V195.28L141.01 204.711V204.717H141.016H141.022V204.711L157.188 195.207V164.924Z" fill="url(#paint79_linear_2178_4525)"/>
<path style="mix-blend-mode:screen" d="M152.635 170.376L141.017 177.205L129.404 170.438V197.939L141.011 204.711V204.717H141.017H141.022V204.711L152.635 197.888V170.376Z" fill="url(#paint80_linear_2178_4525)"/>
<path d="M140.965 159.354V175.816L157.142 166.312V149.85L140.965 159.354Z" fill="url(#paint81_linear_2178_4525)"/>
<path d="M140.971 159.354V175.816L124.799 166.38V149.929L140.971 159.354Z" fill="url(#paint82_linear_2178_4525)"/>
<path d="M124.799 149.928L140.971 159.354L157.143 149.85L140.954 140.413L124.799 149.928Z" fill="url(#paint83_linear_2178_4525)"/>
<path style="mix-blend-mode:color-dodge" d="M141.33 159.067C141.111 159.196 140.836 159.196 140.611 159.067L125.012 149.973L124.799 150.097L140.611 159.444C140.83 159.573 141.105 159.573 141.33 159.444L157.137 150.018L156.924 149.895L141.33 159.067Z" fill="url(#paint84_radial_2178_4525)"/>
<path d="M189.818 130.925V147.387L205.996 137.883V121.421L189.818 130.925Z" fill="url(#paint85_linear_2178_4525)"/>
<path d="M189.824 130.925V147.388L173.652 137.951V121.5L189.824 130.925Z" fill="url(#paint86_linear_2178_4525)"/>
<path d="M173.652 121.5L189.824 130.925L205.996 121.421L189.807 111.984L173.652 121.5Z" fill="url(#paint87_linear_2178_4525)"/>
<path style="mix-blend-mode:color-dodge" d="M190.184 130.638C189.965 130.768 189.689 130.768 189.465 130.638L173.866 121.545L173.652 121.668L189.465 131.015C189.684 131.144 189.959 131.144 190.184 131.015L205.991 121.589L205.777 121.466L190.184 130.638Z" fill="url(#paint88_radial_2178_4525)"/>
<path style="mix-blend-mode:screen" opacity="0.7" d="M189.57 114.43L173.398 123.934L157.227 114.514V176.783L173.393 186.214V186.22H173.398V186.214L189.57 176.71V114.43Z" fill="url(#paint89_linear_2178_4525)"/>
<path style="mix-blend-mode:screen" opacity="0.7" d="M185.012 119.888L173.399 126.717L161.787 119.944V179.442L173.394 186.215V186.22H173.399V186.215L185.012 179.391V119.888Z" fill="url(#paint90_linear_2178_4525)"/>
<path d="M173.393 108.91V125.373L189.57 115.869V99.4062L173.393 108.91Z" fill="url(#paint91_linear_2178_4525)"/>
<path d="M173.398 108.911V125.373L157.227 115.936V99.4854L173.398 108.911Z" fill="url(#paint92_linear_2178_4525)"/>
<path d="M157.227 99.4851L173.398 108.911L189.57 99.4065L173.382 89.9697L157.227 99.4851Z" fill="url(#paint93_linear_2178_4525)"/>
<path style="mix-blend-mode:color-dodge" d="M173.758 108.624C173.539 108.753 173.264 108.753 173.039 108.624L157.44 99.5299L157.227 99.6535L173.039 109C173.258 109.13 173.533 109.13 173.758 109L189.565 99.5748L189.351 99.4512L173.758 108.624Z" fill="url(#paint94_radial_2178_4525)"/>
<path style="mix-blend-mode:screen" d="M205.922 157.64L189.75 167.144L173.584 157.718V186.029L189.745 195.46V195.465H189.75H189.756V195.46L205.922 185.961V157.64Z" fill="url(#paint95_linear_2178_4525)"/>
<path style="mix-blend-mode:screen" d="M201.369 163.091L189.751 169.92L178.139 163.153V188.686L189.751 195.459V195.465H189.757V195.459L201.369 188.636V163.091Z" fill="url(#paint96_linear_2178_4525)"/>
<path d="M189.678 151.485V167.947L205.855 158.443V141.98L189.678 151.485Z" fill="url(#paint97_linear_2178_4525)"/>
<path d="M189.684 151.485V167.947L173.512 158.511V142.06L189.684 151.485Z" fill="url(#paint98_linear_2178_4525)"/>
<path d="M173.512 142.059L189.684 151.485L205.856 141.981L189.667 132.544L173.512 142.059Z" fill="url(#paint99_linear_2178_4525)"/>
<path style="mix-blend-mode:color-dodge" d="M190.043 151.198C189.824 151.327 189.549 151.327 189.324 151.198L173.725 142.104L173.512 142.228L189.324 151.575C189.543 151.704 189.818 151.704 190.043 151.575L205.85 142.149L205.637 142.025L190.043 151.198Z" fill="url(#paint100_radial_2178_4525)"/>
<path style="mix-blend-mode:screen" d="M189.918 180.121L173.746 189.625L157.58 180.2V195.336L173.741 204.767V204.772L173.746 204.767L173.752 204.772V204.767L189.918 195.263V180.121Z" fill="url(#paint101_linear_2178_4525)"/>
<path style="mix-blend-mode:screen" d="M185.365 185.573L173.747 192.402L162.135 185.635V197.994L173.747 204.767V204.773V204.767L173.753 204.773V204.767L185.365 197.944V185.573Z" fill="url(#paint102_linear_2178_4525)"/>
<path d="M173.674 174.669V191.131L189.851 181.627V165.165L173.674 174.669Z" fill="url(#paint103_linear_2178_4525)"/>
<path d="M173.68 174.67V191.132L157.508 181.695V165.244L173.68 174.67Z" fill="url(#paint104_linear_2178_4525)"/>
<path d="M157.508 165.244L173.68 174.669L189.852 165.165L173.663 155.729L157.508 165.244Z" fill="url(#paint105_linear_2178_4525)"/>
<path style="mix-blend-mode:color-dodge" d="M174.039 174.383C173.82 174.512 173.545 174.512 173.32 174.383L157.721 165.289L157.508 165.412L173.32 174.759C173.539 174.888 173.814 174.888 174.039 174.759L189.846 165.334L189.633 165.21L174.039 174.383Z" fill="url(#paint106_radial_2178_4525)"/>
<path style="mix-blend-mode:screen" d="M124.574 119.066L108.402 128.571L92.2305 119.151V195.055L108.397 204.486V204.492L108.402 204.486V204.492V204.486L124.574 194.982V119.066Z" fill="url(#paint107_linear_2178_4525)"/>
<path style="mix-blend-mode:multiply" d="M108.402 128.571L92.2305 119.151V195.055L108.397 204.487V204.492L108.402 204.487V204.492V204.487V128.571Z" fill="url(#paint108_linear_2178_4525)"/>
<path style="mix-blend-mode:screen" d="M120.014 124.524L108.401 131.353L96.7891 124.581V197.714L108.396 204.486V204.492L108.401 204.486V204.492V204.486L120.014 197.663V124.524Z" fill="url(#paint109_linear_2178_4525)"/>
<path d="M108.256 113.688V130.15L124.433 120.646V104.184L108.256 113.688Z" fill="url(#paint110_linear_2178_4525)"/>
<path d="M108.262 113.688V130.15L92.0898 120.714V104.263L108.262 113.688Z" fill="url(#paint111_linear_2178_4525)"/>
<path d="M92.0898 104.262L108.262 113.688L124.434 104.184L108.245 94.7471L92.0898 104.262Z" fill="url(#paint112_linear_2178_4525)"/>
<path style="mix-blend-mode:color-dodge" d="M108.621 113.401C108.402 113.53 108.127 113.53 107.902 113.401L92.3032 104.307L92.0898 104.431L107.902 113.778C108.121 113.907 108.397 113.907 108.621 113.778L124.428 104.352L124.215 104.229L108.621 113.401Z" fill="url(#paint113_radial_2178_4525)"/>
<path style="mix-blend-mode:screen" d="M140.905 153.121L124.733 162.625L108.566 153.2V204.559L124.727 213.991V213.996H124.733H124.738V213.991L140.905 204.492V153.121Z" fill="url(#paint114_linear_2178_4525)"/>
<path style="mix-blend-mode:screen" d="M136.351 158.573L124.733 165.402L113.121 158.635V207.218L124.728 213.996H124.733H124.739L136.351 207.168V158.573Z" fill="url(#paint115_linear_2178_4525)"/>
<path d="M124.682 147.832V164.295L140.859 154.79V138.328L124.682 147.832Z" fill="url(#paint116_linear_2178_4525)"/>
<path d="M124.688 147.833V164.295L108.516 154.858V138.407L124.688 147.833Z" fill="url(#paint117_linear_2178_4525)"/>
<path d="M108.516 138.407L124.688 147.832L140.859 138.328L124.671 128.892L108.516 138.407Z" fill="url(#paint118_linear_2178_4525)"/>
<path style="mix-blend-mode:color-dodge" d="M125.047 147.546C124.828 147.675 124.553 147.675 124.328 147.546L108.729 138.452L108.516 138.575L124.328 147.922C124.547 148.051 124.822 148.051 125.047 147.922L140.854 138.497L140.64 138.373L125.047 147.546Z" fill="url(#paint119_radial_2178_4525)"/>
<path d="M140.965 199.259V215.721L157.142 206.217V189.755L140.965 199.259Z" fill="url(#paint120_linear_2178_4525)"/>
<path d="M140.971 199.259V215.722L124.799 206.285V189.834L140.971 199.259Z" fill="url(#paint121_linear_2178_4525)"/>
<path d="M124.799 189.834L140.971 199.259L157.143 189.755L140.954 180.318L124.799 189.834Z" fill="url(#paint122_linear_2178_4525)"/>
<path style="mix-blend-mode:color-dodge" d="M141.33 198.972C141.111 199.102 140.836 199.102 140.611 198.972L125.012 189.878L124.799 190.002L140.611 199.349C140.83 199.478 141.105 199.478 141.33 199.349L157.137 189.923L156.924 189.8L141.33 198.972Z" fill="url(#paint123_radial_2178_4525)"/>
<path style="mix-blend-mode:screen" d="M157.143 204.711L140.971 214.215L124.799 204.79V214.232L140.965 223.663V223.669L140.971 223.663V223.669V223.663L157.143 214.159V204.711Z" fill="url(#paint124_linear_2178_4525)"/>
<path style="mix-blend-mode:screen" d="M152.584 210.163L140.972 216.992L129.359 210.225V216.891L140.966 223.663V223.669L140.972 223.663V223.669V223.663L152.584 216.84V210.163Z" fill="url(#paint125_linear_2178_4525)"/>
<path style="mix-blend-mode:screen" d="M124.434 184.404L108.262 193.908L92.0898 184.489V214.204L108.256 223.635V223.641L108.262 223.635V223.641V223.635L124.434 214.131V184.404Z" fill="url(#paint126_linear_2178_4525)"/>
<path style="mix-blend-mode:screen" d="M119.875 189.862L108.263 196.691L96.6504 189.919V216.863L108.257 223.636V223.641L108.263 223.636V223.641V223.636L119.875 216.812V189.862Z" fill="url(#paint127_linear_2178_4525)"/>
<path d="M108.256 178.885V195.347L124.433 185.843V169.381L108.256 178.885Z" fill="url(#paint128_linear_2178_4525)"/>
<path d="M108.262 178.885V195.348L92.0898 185.911V169.46L108.262 178.885Z" fill="url(#paint129_linear_2178_4525)"/>
<path d="M92.0898 169.46L108.262 178.885L124.434 169.381L108.245 159.944L92.0898 169.46Z" fill="url(#paint130_linear_2178_4525)"/>
<path style="mix-blend-mode:color-dodge" d="M108.621 178.598C108.402 178.728 108.127 178.728 107.902 178.598L92.3032 169.504L92.0898 169.628L107.902 178.975C108.121 179.104 108.397 179.104 108.621 178.975L124.428 169.549L124.215 169.426L108.621 178.598Z" fill="url(#paint131_radial_2178_4525)"/>
<path style="mix-blend-mode:color-dodge" d="M179.407 193.334C190.888 188.536 196.79 176.48 192.588 166.406C188.385 156.331 175.671 152.054 164.19 156.852C152.708 161.65 146.807 173.706 151.009 183.78C155.211 193.855 167.925 198.132 179.407 193.334Z" fill="url(#paint132_radial_2178_4525)"/>
<path style="mix-blend-mode:color-dodge" d="M130.557 166.634C142.039 161.836 147.94 149.78 143.738 139.705C139.536 129.631 126.822 125.354 115.34 130.152C103.858 134.949 97.9572 147.006 102.159 157.08C106.361 167.154 119.075 171.432 130.557 166.634Z" fill="url(#paint133_radial_2178_4525)"/>
<path style="mix-blend-mode:color-dodge" d="M179.69 127.574C191.171 122.776 197.073 110.72 192.871 100.646C188.669 90.5715 175.955 86.294 164.473 91.0919C152.991 95.8898 147.09 107.946 151.292 118.021C155.494 128.095 168.208 132.372 179.69 127.574Z" fill="url(#paint134_radial_2178_4525)"/>
</g>
<defs>
<filter id="filter0_d_2178_4525" x="67.7695" y="143.556" width="172.986" height="109.349" filterUnits="userSpaceOnUse" color-interpolation-filters="sRGB">
<feFlood flood-opacity="0" result="BackgroundImageFix"/>
<feColorMatrix in="SourceAlpha" type="matrix" values="0 0 0 0 0 0 0 0 0 0 0 0 0 0 0 0 0 0 127 0" result="hardAlpha"/>
<feOffset dy="10"/>
<feGaussianBlur stdDeviation="2"/>
<feComposite in2="hardAlpha" operator="out"/>
<feColorMatrix type="matrix" values="0 0 0 0 0 0 0 0 0 0 0 0 0 0 0 0 0 0 0.25 0"/>
<feBlend mode="normal" in2="BackgroundImageFix" result="effect1_dropShadow_2178_4525"/>
<feBlend mode="normal" in="SourceGraphic" in2="effect1_dropShadow_2178_4525" result="shape"/>
</filter>
<radialGradient id="paint0_radial_2178_4525" cx="0" cy="0" r="1" gradientUnits="userSpaceOnUse" gradientTransform="translate(146.18 148.425) scale(132.525 133.14)">
<stop stop-color="#60169C"/>
<stop offset="0.28" stop-color="#471074"/>
<stop offset="0.9" stop-color="#0A0210"/>
<stop offset="1"/>
</radialGradient>
<radialGradient id="paint1_radial_2178_4525" cx="0" cy="0" r="1" gradientUnits="userSpaceOnUse" gradientTransform="translate(146.18 148.425) scale(132.525 133.14)">
<stop stop-color="#60169C"/>
<stop offset="0.28" stop-color="#471074"/>
<stop offset="0.9" stop-color="#0A0210"/>
<stop offset="1"/>
</radialGradient>
<linearGradient id="paint2_linear_2178_4525" x1="236.761" y1="191.935" x2="71.7744" y2="191.935" gradientUnits="userSpaceOnUse">
<stop stop-color="#2F054A"/>
<stop offset="1" stop-color="#5824B0"/>
</linearGradient>
<linearGradient id="paint3_linear_2178_4525" x1="215.071" y1="191.227" x2="50.0835" y2="191.227" gradientUnits="userSpaceOnUse">
<stop offset="0.06" stop-color="#2F0D5E"/>
<stop offset="0.28" stop-color="#2F105E"/>
<stop offset="0.47" stop-color="#311B61"/>
<stop offset="0.48" stop-color="#351F65"/>
<stop offset="0.5" stop-color="#422C72"/>
<stop offset="0.51" stop-color="#574188"/>
<stop offset="0.52" stop-color="#755FA6"/>
<stop offset="0.53" stop-color="#8770B8"/>
<stop offset="0.54" stop-color="#7D66AE"/>
<stop offset="0.56" stop-color="#5C458C"/>
<stop offset="0.59" stop-color="#442E74"/>
<stop offset="0.61" stop-color="#351F66"/>
<stop offset="0.63" stop-color="#311B61"/>
<stop offset="0.67" stop-color="#2A1054"/>
<stop offset="0.6701" stop-color="#2A1054"/>
<stop offset="0.75" stop-color="#220446"/>
<stop offset="0.81" stop-color="#200041"/>
<stop offset="1" stop-color="#200041"/>
</linearGradient>
<linearGradient id="paint4_linear_2178_4525" x1="236.761" y1="187.664" x2="71.7744" y2="187.664" gradientUnits="userSpaceOnUse">
<stop stop-color="#58098A"/>
<stop offset="1" stop-color="#9E3BDB"/>
</linearGradient>
<radialGradient id="paint5_radial_2178_4525" cx="0" cy="0" r="1" gradientUnits="userSpaceOnUse" gradientTransform="translate(143.223 205.93) scale(62.711 62.7691)">
<stop stop-color="white"/>
<stop offset="1"/>
</radialGradient>
<linearGradient id="paint6_linear_2178_4525" x1="235.111" y1="187.664" x2="73.4257" y2="187.664" gradientUnits="userSpaceOnUse">
<stop stop-color="#2F054A"/>
<stop offset="1" stop-color="#5E1D9A"/>
</linearGradient>
<linearGradient id="paint7_linear_2178_4525" x1="162.495" y1="146.482" x2="133.806" y2="289.788" gradientUnits="userSpaceOnUse">
<stop offset="0.74" stop-color="#45108A"/>
<stop offset="1" stop-color="#3746A3"/>
</linearGradient>
<linearGradient id="paint8_linear_2178_4525" x1="-241.093" y1="451.61" x2="-247.982" y2="455.584" gradientUnits="userSpaceOnUse">
<stop stop-color="#3D065F"/>
<stop offset="1" stop-color="#5F27BD"/>
</linearGradient>
<linearGradient id="paint9_linear_2178_4525" x1="-241.093" y1="451.61" x2="-247.982" y2="455.584" gradientUnits="userSpaceOnUse">
<stop stop-color="#2F054A"/>
<stop offset="1" stop-color="#5824B0"/>
</linearGradient>
<linearGradient id="paint10_linear_2178_4525" x1="-221.813" y1="467.7" x2="-215.897" y2="471.372" gradientUnits="userSpaceOnUse">
<stop offset="0.06" stop-color="#9F79B8"/>
<stop offset="0.26" stop-color="#A07BB9"/>
<stop offset="0.36" stop-color="#A782BF"/>
<stop offset="0.43" stop-color="#B28FC8"/>
<stop offset="0.49" stop-color="#C1A1D5"/>
<stop offset="0.51" stop-color="#C3A5D6"/>
<stop offset="0.52" stop-color="#CCB2DC"/>
<stop offset="0.53" stop-color="#DAC8E6"/>
<stop offset="0.55" stop-color="#EEE6F4"/>
<stop offset="0.56" stop-color="white"/>
<stop offset="0.57" stop-color="#EBDFF3"/>
<stop offset="0.58" stop-color="#DDC7EA"/>
<stop offset="0.59" stop-color="#D4B9E4"/>
<stop offset="0.6" stop-color="#D1B4E3"/>
<stop offset="0.66" stop-color="#B294D5"/>
<stop offset="0.72" stop-color="#9B7CCB"/>
<stop offset="0.77" stop-color="#8D6EC5"/>
<stop offset="0.81" stop-color="#8969C3"/>
<stop offset="1" stop-color="#B086CC"/>
</linearGradient>
<linearGradient id="paint11_linear_2178_4525" x1="-249.169" y1="456.278" x2="-256.059" y2="460.252" gradientUnits="userSpaceOnUse">
<stop stop-color="#3D065F"/>
<stop offset="1" stop-color="#5F27BD"/>
</linearGradient>
<linearGradient id="paint12_linear_2178_4525" x1="-249.169" y1="456.278" x2="-256.059" y2="460.252" gradientUnits="userSpaceOnUse">
<stop stop-color="#2F054A"/>
<stop offset="1" stop-color="#5824B0"/>
</linearGradient>
<linearGradient id="paint13_linear_2178_4525" x1="-226.143" y1="474.693" x2="-220.225" y2="478.357" gradientUnits="userSpaceOnUse">
<stop offset="0.06" stop-color="#9F79B8"/>
<stop offset="0.26" stop-color="#A07BB9"/>
<stop offset="0.36" stop-color="#A782BF"/>
<stop offset="0.43" stop-color="#B28FC8"/>
<stop offset="0.49" stop-color="#C1A1D5"/>
<stop offset="0.51" stop-color="#C3A5D6"/>
<stop offset="0.52" stop-color="#CCB2DC"/>
<stop offset="0.53" stop-color="#DAC8E6"/>
<stop offset="0.55" stop-color="#EEE6F4"/>
<stop offset="0.56" stop-color="white"/>
<stop offset="0.57" stop-color="#EBDFF3"/>
<stop offset="0.58" stop-color="#DDC7EA"/>
<stop offset="0.59" stop-color="#D4B9E4"/>
<stop offset="0.6" stop-color="#D1B4E3"/>
<stop offset="0.66" stop-color="#B294D5"/>
<stop offset="0.72" stop-color="#9B7CCB"/>
<stop offset="0.77" stop-color="#8D6EC5"/>
<stop offset="0.81" stop-color="#8969C3"/>
<stop offset="1" stop-color="#B086CC"/>
</linearGradient>
<radialGradient id="paint14_radial_2178_4525" cx="0" cy="0" r="1" gradientUnits="userSpaceOnUse" gradientTransform="translate(207.739 191.651) rotate(157.321) scale(29.7536 19.6502)">
<stop stop-color="#972A74"/>
<stop offset="0.04" stop-color="#8A266A"/>
<stop offset="0.19" stop-color="#601A49"/>
<stop offset="0.35" stop-color="#3D112F"/>
<stop offset="0.51" stop-color="#22091A"/>
<stop offset="0.67" stop-color="#0F040B"/>
<stop offset="0.83" stop-color="#030102"/>
<stop offset="1"/>
</radialGradient>
<radialGradient id="paint15_radial_2178_4525" cx="0" cy="0" r="1" gradientUnits="userSpaceOnUse" gradientTransform="translate(128.656 229.619) rotate(-157.641) scale(15.4833 10.2257)">
<stop stop-color="#972A74"/>
<stop offset="0.04" stop-color="#8A266A"/>
<stop offset="0.19" stop-color="#601A49"/>
<stop offset="0.35" stop-color="#3D112F"/>
<stop offset="0.51" stop-color="#22091A"/>
<stop offset="0.67" stop-color="#0F040B"/>
<stop offset="0.83" stop-color="#030102"/>
<stop offset="1"/>
</radialGradient>
<linearGradient id="paint16_linear_2178_4525" x1="91.4617" y1="246.347" x2="109.67" y2="211.677" gradientUnits="userSpaceOnUse">
<stop stop-color="#25054D"/>
<stop offset="1" stop-color="#45108A"/>
</linearGradient>
<linearGradient id="paint17_linear_2178_4525" x1="87.02" y1="215.861" x2="118.022" y2="205.767" gradientUnits="userSpaceOnUse">
<stop stop-color="#25054D"/>
<stop offset="1" stop-color="#45108A"/>
</linearGradient>
<linearGradient id="paint18_linear_2178_4525" x1="113.03" y1="211.27" x2="124.708" y2="206.169" gradientUnits="userSpaceOnUse">
<stop stop-color="#25054D"/>
<stop offset="1" stop-color="#45108A"/>
</linearGradient>
<linearGradient id="paint19_linear_2178_4525" x1="124.102" y1="246.437" x2="142.311" y2="211.772" gradientUnits="userSpaceOnUse">
<stop stop-color="#25054D"/>
<stop offset="1" stop-color="#45108A"/>
</linearGradient>
<linearGradient id="paint20_linear_2178_4525" x1="119.661" y1="215.957" x2="150.662" y2="205.863" gradientUnits="userSpaceOnUse">
<stop stop-color="#25054D"/>
<stop offset="1" stop-color="#45108A"/>
</linearGradient>
<linearGradient id="paint21_linear_2178_4525" x1="145.676" y1="211.359" x2="157.354" y2="206.264" gradientUnits="userSpaceOnUse">
<stop stop-color="#25054D"/>
<stop offset="1" stop-color="#45108A"/>
</linearGradient>
<linearGradient id="paint22_linear_2178_4525" x1="107.772" y1="236.933" x2="125.981" y2="202.263" gradientUnits="userSpaceOnUse">
<stop stop-color="#25054D"/>
<stop offset="1" stop-color="#45108A"/>
</linearGradient>
<linearGradient id="paint23_linear_2178_4525" x1="103.331" y1="206.447" x2="134.332" y2="196.353" gradientUnits="userSpaceOnUse">
<stop stop-color="#25054D"/>
<stop offset="1" stop-color="#45108A"/>
</linearGradient>
<linearGradient id="paint24_linear_2178_4525" x1="129.341" y1="201.856" x2="141.018" y2="196.754" gradientUnits="userSpaceOnUse">
<stop stop-color="#25054D"/>
<stop offset="1" stop-color="#45108A"/>
</linearGradient>
<linearGradient id="paint25_linear_2178_4525" x1="91.489" y1="227.445" x2="109.698" y2="192.776" gradientUnits="userSpaceOnUse">
<stop stop-color="#25054D"/>
<stop offset="1" stop-color="#45108A"/>
</linearGradient>
<linearGradient id="paint26_linear_2178_4525" x1="87.0474" y1="196.966" x2="118.049" y2="186.871" gradientUnits="userSpaceOnUse">
<stop stop-color="#25054D"/>
<stop offset="1" stop-color="#45108A"/>
</linearGradient>
<linearGradient id="paint27_linear_2178_4525" x1="113.057" y1="192.368" x2="124.735" y2="187.267" gradientUnits="userSpaceOnUse">
<stop stop-color="#25054D"/>
<stop offset="1" stop-color="#45108A"/>
</linearGradient>
<linearGradient id="paint28_linear_2178_4525" x1="124.085" y1="227.519" x2="142.293" y2="192.849" gradientUnits="userSpaceOnUse">
<stop stop-color="#25054D"/>
<stop offset="1" stop-color="#45108A"/>
</linearGradient>
<linearGradient id="paint29_linear_2178_4525" x1="119.643" y1="197.033" x2="150.645" y2="186.939" gradientUnits="userSpaceOnUse">
<stop stop-color="#25054D"/>
<stop offset="1" stop-color="#45108A"/>
</linearGradient>
<linearGradient id="paint30_linear_2178_4525" x1="145.653" y1="192.441" x2="157.331" y2="187.34" gradientUnits="userSpaceOnUse">
<stop stop-color="#25054D"/>
<stop offset="1" stop-color="#45108A"/>
</linearGradient>
<linearGradient id="paint31_linear_2178_4525" x1="107.802" y1="218.031" x2="126.01" y2="183.361" gradientUnits="userSpaceOnUse">
<stop stop-color="#25054D"/>
<stop offset="1" stop-color="#45108A"/>
</linearGradient>
<linearGradient id="paint32_linear_2178_4525" x1="103.36" y1="187.552" x2="134.362" y2="177.457" gradientUnits="userSpaceOnUse">
<stop stop-color="#25054D"/>
<stop offset="1" stop-color="#45108A"/>
</linearGradient>
<linearGradient id="paint33_linear_2178_4525" x1="129.37" y1="182.954" x2="141.047" y2="177.853" gradientUnits="userSpaceOnUse">
<stop stop-color="#25054D"/>
<stop offset="1" stop-color="#45108A"/>
</linearGradient>
<linearGradient id="paint34_linear_2178_4525" x1="156.727" y1="227.608" x2="174.936" y2="192.944" gradientUnits="userSpaceOnUse">
<stop stop-color="#25054D"/>
<stop offset="1" stop-color="#45108A"/>
</linearGradient>
<linearGradient id="paint35_linear_2178_4525" x1="152.286" y1="197.129" x2="183.287" y2="187.035" gradientUnits="userSpaceOnUse">
<stop stop-color="#25054D"/>
<stop offset="1" stop-color="#45108A"/>
</linearGradient>
<linearGradient id="paint36_linear_2178_4525" x1="178.301" y1="192.531" x2="189.979" y2="187.436" gradientUnits="userSpaceOnUse">
<stop stop-color="#25054D"/>
<stop offset="1" stop-color="#45108A"/>
</linearGradient>
<linearGradient id="paint37_linear_2178_4525" x1="140.397" y1="218.104" x2="158.606" y2="183.434" gradientUnits="userSpaceOnUse">
<stop stop-color="#25054D"/>
<stop offset="1" stop-color="#45108A"/>
</linearGradient>
<linearGradient id="paint38_linear_2178_4525" x1="135.956" y1="187.618" x2="166.957" y2="177.524" gradientUnits="userSpaceOnUse">
<stop stop-color="#25054D"/>
<stop offset="1" stop-color="#45108A"/>
</linearGradient>
<linearGradient id="paint39_linear_2178_4525" x1="161.966" y1="183.026" x2="173.643" y2="177.925" gradientUnits="userSpaceOnUse">
<stop stop-color="#25054D"/>
<stop offset="1" stop-color="#45108A"/>
</linearGradient>
<linearGradient id="paint40_linear_2178_4525" x1="124.114" y1="208.616" x2="142.323" y2="173.946" gradientUnits="userSpaceOnUse">
<stop stop-color="#25054D"/>
<stop offset="1" stop-color="#45108A"/>
</linearGradient>
<linearGradient id="paint41_linear_2178_4525" x1="119.672" y1="178.137" x2="150.674" y2="168.042" gradientUnits="userSpaceOnUse">
<stop stop-color="#25054D"/>
<stop offset="1" stop-color="#45108A"/>
</linearGradient>
<linearGradient id="paint42_linear_2178_4525" x1="145.682" y1="173.539" x2="157.36" y2="168.438" gradientUnits="userSpaceOnUse">
<stop stop-color="#25054D"/>
<stop offset="1" stop-color="#45108A"/>
</linearGradient>
<linearGradient id="paint43_linear_2178_4525" x1="173.04" y1="218.193" x2="191.248" y2="183.529" gradientUnits="userSpaceOnUse">
<stop stop-color="#25054D"/>
<stop offset="1" stop-color="#45108A"/>
</linearGradient>
<linearGradient id="paint44_linear_2178_4525" x1="168.598" y1="187.714" x2="199.6" y2="177.619" gradientUnits="userSpaceOnUse">
<stop stop-color="#25054D"/>
<stop offset="1" stop-color="#45108A"/>
</linearGradient>
<linearGradient id="paint45_linear_2178_4525" x1="194.614" y1="183.116" x2="206.291" y2="178.021" gradientUnits="userSpaceOnUse">
<stop stop-color="#25054D"/>
<stop offset="1" stop-color="#45108A"/>
</linearGradient>
<linearGradient id="paint46_linear_2178_4525" x1="156.71" y1="208.69" x2="174.918" y2="174.02" gradientUnits="userSpaceOnUse">
<stop stop-color="#25054D"/>
<stop offset="1" stop-color="#45108A"/>
</linearGradient>
<linearGradient id="paint47_linear_2178_4525" x1="152.268" y1="178.204" x2="183.27" y2="168.11" gradientUnits="userSpaceOnUse">
<stop stop-color="#25054D"/>
<stop offset="1" stop-color="#45108A"/>
</linearGradient>
<linearGradient id="paint48_linear_2178_4525" x1="178.278" y1="173.612" x2="189.956" y2="168.511" gradientUnits="userSpaceOnUse">
<stop stop-color="#25054D"/>
<stop offset="1" stop-color="#45108A"/>
</linearGradient>
<linearGradient id="paint49_linear_2178_4525" x1="140.427" y1="199.202" x2="158.635" y2="164.532" gradientUnits="userSpaceOnUse">
<stop stop-color="#25054D"/>
<stop offset="1" stop-color="#45108A"/>
</linearGradient>
<linearGradient id="paint50_linear_2178_4525" x1="135.985" y1="168.723" x2="166.986" y2="158.628" gradientUnits="userSpaceOnUse">
<stop stop-color="#25054D"/>
<stop offset="1" stop-color="#45108A"/>
</linearGradient>
<linearGradient id="paint51_linear_2178_4525" x1="161.995" y1="164.125" x2="173.672" y2="159.024" gradientUnits="userSpaceOnUse">
<stop stop-color="#25054D"/>
<stop offset="1" stop-color="#45108A"/>
</linearGradient>
<linearGradient id="paint52_linear_2178_4525" x1="189.35" y1="208.779" x2="207.559" y2="174.115" gradientUnits="userSpaceOnUse">
<stop stop-color="#25054D"/>
<stop offset="1" stop-color="#45108A"/>
</linearGradient>
<linearGradient id="paint53_linear_2178_4525" x1="184.909" y1="178.3" x2="215.91" y2="168.205" gradientUnits="userSpaceOnUse">
<stop stop-color="#25054D"/>
<stop offset="1" stop-color="#45108A"/>
</linearGradient>
<linearGradient id="paint54_linear_2178_4525" x1="210.924" y1="173.702" x2="222.602" y2="168.607" gradientUnits="userSpaceOnUse">
<stop stop-color="#25054D"/>
<stop offset="1" stop-color="#45108A"/>
</linearGradient>
<linearGradient id="paint55_linear_2178_4525" x1="173.022" y1="199.275" x2="191.231" y2="164.606" gradientUnits="userSpaceOnUse">
<stop stop-color="#25054D"/>
<stop offset="1" stop-color="#45108A"/>
</linearGradient>
<linearGradient id="paint56_linear_2178_4525" x1="168.581" y1="168.79" x2="199.582" y2="158.696" gradientUnits="userSpaceOnUse">
<stop stop-color="#25054D"/>
<stop offset="1" stop-color="#45108A"/>
</linearGradient>
<linearGradient id="paint57_linear_2178_4525" x1="194.591" y1="164.198" x2="206.268" y2="159.097" gradientUnits="userSpaceOnUse">
<stop stop-color="#25054D"/>
<stop offset="1" stop-color="#45108A"/>
</linearGradient>
<linearGradient id="paint58_linear_2178_4525" x1="156.737" y1="189.788" x2="174.946" y2="155.118" gradientUnits="userSpaceOnUse">
<stop stop-color="#25054D"/>
<stop offset="1" stop-color="#45108A"/>
</linearGradient>
<linearGradient id="paint59_linear_2178_4525" x1="152.295" y1="159.308" x2="183.297" y2="149.214" gradientUnits="userSpaceOnUse">
<stop stop-color="#25054D"/>
<stop offset="1" stop-color="#45108A"/>
</linearGradient>
<linearGradient id="paint60_linear_2178_4525" x1="178.305" y1="154.711" x2="189.983" y2="149.61" gradientUnits="userSpaceOnUse">
<stop stop-color="#25054D"/>
<stop offset="1" stop-color="#45108A"/>
</linearGradient>
<linearGradient id="paint61_linear_2178_4525" x1="173.539" y1="165.879" x2="173.539" y2="50.8061" gradientUnits="userSpaceOnUse">
<stop stop-color="#0D0625"/>
<stop offset="0.31" stop-color="#271273"/>
<stop offset="1"/>
</linearGradient>
<linearGradient id="paint62_linear_2178_4525" x1="173.54" y1="165.981" x2="173.54" y2="57.7366" gradientUnits="userSpaceOnUse">
<stop stop-color="#20083F"/>
<stop offset="0.43" stop-color="#45108A"/>
<stop offset="0.5" stop-color="#3C0D78"/>
<stop offset="1"/>
</linearGradient>
<linearGradient id="paint63_linear_2178_4525" x1="184.46" y1="79.9818" x2="196.316" y2="106.57" gradientUnits="userSpaceOnUse">
<stop stop-color="#13054D"/>
<stop offset="1" stop-color="#45108A"/>
</linearGradient>
<linearGradient id="paint64_linear_2178_4525" x1="156.632" y1="60.8559" x2="174.977" y2="87.3909" gradientUnits="userSpaceOnUse">
<stop stop-color="#AD792B"/>
<stop offset="1" stop-color="#45108A"/>
</linearGradient>
<linearGradient id="paint65_linear_2178_4525" x1="188.133" y1="32.8321" x2="169.902" y2="67.5357" gradientUnits="userSpaceOnUse">
<stop offset="0.52" stop-color="#C65EF7"/>
<stop offset="1" stop-color="#742AE4"/>
</linearGradient>
<radialGradient id="paint66_radial_2178_4525" cx="0" cy="0" r="1" gradientUnits="userSpaceOnUse" gradientTransform="translate(173.539 65.4979) scale(11.9324 11.9434)">
<stop stop-color="white"/>
<stop offset="1"/>
</radialGradient>
<linearGradient id="paint67_linear_2178_4525" x1="205.898" y1="185.635" x2="205.898" y2="165.34" gradientUnits="userSpaceOnUse">
<stop stop-color="#271273"/>
<stop offset="0.19" stop-color="#1F0E5C"/>
<stop offset="1"/>
</linearGradient>
<linearGradient id="paint68_linear_2178_4525" x1="205.899" y1="185.737" x2="205.899" y2="172.27" gradientUnits="userSpaceOnUse">
<stop stop-color="#45108A"/>
<stop offset="0.32" stop-color="#2E0A5C"/>
<stop offset="1"/>
</linearGradient>
<linearGradient id="paint69_linear_2178_4525" x1="216.748" y1="174.124" x2="228.603" y2="200.712" gradientUnits="userSpaceOnUse">
<stop stop-color="#13054D"/>
<stop offset="1" stop-color="#45108A"/>
</linearGradient>
<linearGradient id="paint70_linear_2178_4525" x1="188.919" y1="154.998" x2="207.264" y2="181.534" gradientUnits="userSpaceOnUse">
<stop stop-color="#AD792B"/>
<stop offset="1" stop-color="#45108A"/>
</linearGradient>
<linearGradient id="paint71_linear_2178_4525" x1="220.42" y1="126.975" x2="202.189" y2="161.678" gradientUnits="userSpaceOnUse">
<stop offset="0.52" stop-color="#C65EF7"/>
<stop offset="1" stop-color="#742AE4"/>
</linearGradient>
<radialGradient id="paint72_radial_2178_4525" cx="0" cy="0" r="1" gradientUnits="userSpaceOnUse" gradientTransform="translate(205.826 159.64) scale(11.9324 11.9434)">
<stop stop-color="white"/>
<stop offset="1"/>
</radialGradient>
<linearGradient id="paint73_linear_2178_4525" x1="157.397" y1="175.743" x2="157.397" y2="117.74" gradientUnits="userSpaceOnUse">
<stop stop-color="#271273"/>
<stop offset="0.19" stop-color="#1F0E5C"/>
<stop offset="1"/>
</linearGradient>
<linearGradient id="paint74_linear_2178_4525" x1="157.397" y1="175.845" x2="157.397" y2="124.671" gradientUnits="userSpaceOnUse">
<stop stop-color="#45108A"/>
<stop offset="0.32" stop-color="#2E0A5C"/>
<stop offset="1"/>
</linearGradient>
<linearGradient id="paint75_linear_2178_4525" x1="168.33" y1="134.663" x2="180.185" y2="161.251" gradientUnits="userSpaceOnUse">
<stop stop-color="#13054D"/>
<stop offset="1" stop-color="#45108A"/>
</linearGradient>
<linearGradient id="paint76_linear_2178_4525" x1="140.507" y1="115.537" x2="158.846" y2="142.073" gradientUnits="userSpaceOnUse">
<stop stop-color="#25054D"/>
<stop offset="1" stop-color="#45108A"/>
</linearGradient>
<linearGradient id="paint77_linear_2178_4525" x1="172.002" y1="87.5081" x2="153.771" y2="122.217" gradientUnits="userSpaceOnUse">
<stop offset="0.52" stop-color="#45108A"/>
<stop offset="1" stop-color="#3A3B9E"/>
</linearGradient>
<radialGradient id="paint78_radial_2178_4525" cx="0" cy="0" r="1" gradientUnits="userSpaceOnUse" gradientTransform="translate(157.408 120.18) scale(11.9324 11.9434)">
<stop stop-color="white"/>
<stop offset="1"/>
</radialGradient>
<linearGradient id="paint79_linear_2178_4525" x1="141.016" y1="203.958" x2="141.016" y2="154.172" gradientUnits="userSpaceOnUse">
<stop stop-color="#271273"/>
<stop offset="0.19" stop-color="#1F0E5C"/>
<stop offset="1"/>
</linearGradient>
<linearGradient id="paint80_linear_2178_4525" x1="141.017" y1="204.065" x2="141.017" y2="161.102" gradientUnits="userSpaceOnUse">
<stop stop-color="#45108A"/>
<stop offset="0.32" stop-color="#2E0A5C"/>
<stop offset="1"/>
</linearGradient>
<linearGradient id="paint81_linear_2178_4525" x1="151.892" y1="169.206" x2="163.747" y2="195.794" gradientUnits="userSpaceOnUse">
<stop stop-color="#13054D"/>
<stop offset="1" stop-color="#45108A"/>
</linearGradient>
<linearGradient id="paint82_linear_2178_4525" x1="124.063" y1="150.08" x2="142.409" y2="176.616" gradientUnits="userSpaceOnUse">
<stop stop-color="#AD792B"/>
<stop offset="1" stop-color="#45108A"/>
</linearGradient>
<linearGradient id="paint83_linear_2178_4525" x1="155.565" y1="122.057" x2="137.334" y2="156.76" gradientUnits="userSpaceOnUse">
<stop offset="0.52" stop-color="#C65EF7"/>
<stop offset="1" stop-color="#742AE4"/>
</linearGradient>
<radialGradient id="paint84_radial_2178_4525" cx="0" cy="0" r="1" gradientUnits="userSpaceOnUse" gradientTransform="translate(140.971 154.722) scale(11.9324 11.9434)">
<stop stop-color="white"/>
<stop offset="1"/>
</radialGradient>
<linearGradient id="paint85_linear_2178_4525" x1="200.746" y1="140.778" x2="212.601" y2="167.365" gradientUnits="userSpaceOnUse">
<stop stop-color="#13054D"/>
<stop offset="1" stop-color="#45108A"/>
</linearGradient>
<linearGradient id="paint86_linear_2178_4525" x1="172.917" y1="121.652" x2="191.262" y2="148.187" gradientUnits="userSpaceOnUse">
<stop stop-color="#AD792B"/>
<stop offset="1" stop-color="#45108A"/>
</linearGradient>
<linearGradient id="paint87_linear_2178_4525" x1="204.418" y1="93.6224" x2="186.187" y2="128.332" gradientUnits="userSpaceOnUse">
<stop offset="0.52" stop-color="#45108A"/>
<stop offset="1" stop-color="#3A3B9E"/>
</linearGradient>
<radialGradient id="paint88_radial_2178_4525" cx="0" cy="0" r="1" gradientUnits="userSpaceOnUse" gradientTransform="translate(189.824 126.294) scale(11.9324 11.9434)">
<stop stop-color="white"/>
<stop offset="1"/>
</radialGradient>
<linearGradient id="paint89_linear_2178_4525" x1="173.398" y1="184.854" x2="173.398" y2="95.0392" gradientUnits="userSpaceOnUse">
<stop stop-color="#271273"/>
<stop offset="0.19" stop-color="#1F0E5C"/>
<stop offset="1"/>
</linearGradient>
<linearGradient id="paint90_linear_2178_4525" x1="173.399" y1="184.961" x2="173.399" y2="101.97" gradientUnits="userSpaceOnUse">
<stop stop-color="#45108A"/>
<stop offset="0.32" stop-color="#2E0A5C"/>
<stop offset="1"/>
</linearGradient>
<linearGradient id="paint91_linear_2178_4525" x1="184.32" y1="118.763" x2="196.175" y2="145.351" gradientUnits="userSpaceOnUse">
<stop stop-color="#13054D"/>
<stop offset="1" stop-color="#45108A"/>
</linearGradient>
<linearGradient id="paint92_linear_2178_4525" x1="156.491" y1="99.6371" x2="174.836" y2="126.172" gradientUnits="userSpaceOnUse">
<stop stop-color="#AD792B"/>
<stop offset="1" stop-color="#45108A"/>
</linearGradient>
<linearGradient id="paint93_linear_2178_4525" x1="187.992" y1="71.6134" x2="169.761" y2="106.317" gradientUnits="userSpaceOnUse">
<stop offset="0.52" stop-color="#C65EF7"/>
<stop offset="1" stop-color="#742AE4"/>
</linearGradient>
<radialGradient id="paint94_radial_2178_4525" cx="0" cy="0" r="1" gradientUnits="userSpaceOnUse" gradientTransform="translate(173.398 104.279) scale(11.9324 11.9434)">
<stop stop-color="white"/>
<stop offset="1"/>
</radialGradient>
<linearGradient id="paint95_linear_2178_4525" x1="189.756" y1="194.746" x2="189.756" y2="147.422" gradientUnits="userSpaceOnUse">
<stop stop-color="#271273"/>
<stop offset="0.19" stop-color="#1F0E5C"/>
<stop offset="1"/>
</linearGradient>
<linearGradient id="paint96_linear_2178_4525" x1="189.757" y1="194.852" x2="189.757" y2="154.351" gradientUnits="userSpaceOnUse">
<stop stop-color="#45108A"/>
<stop offset="0.32" stop-color="#2E0A5C"/>
<stop offset="1"/>
</linearGradient>
<linearGradient id="paint97_linear_2178_4525" x1="200.605" y1="161.337" x2="212.46" y2="187.925" gradientUnits="userSpaceOnUse">
<stop stop-color="#13054D"/>
<stop offset="1" stop-color="#45108A"/>
</linearGradient>
<linearGradient id="paint98_linear_2178_4525" x1="172.776" y1="142.211" x2="191.122" y2="168.746" gradientUnits="userSpaceOnUse">
<stop stop-color="#AD792B"/>
<stop offset="1" stop-color="#45108A"/>
</linearGradient>
<linearGradient id="paint99_linear_2178_4525" x1="204.278" y1="114.188" x2="186.047" y2="148.891" gradientUnits="userSpaceOnUse">
<stop offset="0.52" stop-color="#C65EF7"/>
<stop offset="1" stop-color="#742AE4"/>
</linearGradient>
<radialGradient id="paint100_radial_2178_4525" cx="0" cy="0" r="1" gradientUnits="userSpaceOnUse" gradientTransform="translate(189.684 146.853) scale(11.9324 11.9434)">
<stop stop-color="white"/>
<stop offset="1"/>
</radialGradient>
<linearGradient id="paint101_linear_2178_4525" x1="173.752" y1="204.3" x2="173.752" y2="173.461" gradientUnits="userSpaceOnUse">
<stop stop-color="#271273"/>
<stop offset="0.19" stop-color="#1F0E5C"/>
<stop offset="1"/>
</linearGradient>
<linearGradient id="paint102_linear_2178_4525" x1="173.753" y1="204.407" x2="173.753" y2="180.391" gradientUnits="userSpaceOnUse">
<stop stop-color="#45108A"/>
<stop offset="0.32" stop-color="#2E0A5C"/>
<stop offset="1"/>
</linearGradient>
<linearGradient id="paint103_linear_2178_4525" x1="184.601" y1="184.522" x2="196.456" y2="211.11" gradientUnits="userSpaceOnUse">
<stop stop-color="#13054D"/>
<stop offset="1" stop-color="#45108A"/>
</linearGradient>
<linearGradient id="paint104_linear_2178_4525" x1="156.772" y1="165.396" x2="175.118" y2="191.931" gradientUnits="userSpaceOnUse">
<stop stop-color="#AD792B"/>
<stop offset="1" stop-color="#45108A"/>
</linearGradient>
<linearGradient id="paint105_linear_2178_4525" x1="188.274" y1="137.372" x2="170.043" y2="172.076" gradientUnits="userSpaceOnUse">
<stop offset="0.52" stop-color="#C65EF7"/>
<stop offset="1" stop-color="#742AE4"/>
</linearGradient>
<radialGradient id="paint106_radial_2178_4525" cx="0" cy="0" r="1" gradientUnits="userSpaceOnUse" gradientTransform="translate(173.68 170.038) scale(11.9324 11.9434)">
<stop stop-color="white"/>
<stop offset="1"/>
</radialGradient>
<linearGradient id="paint107_linear_2178_4525" x1="108.402" y1="202.867" x2="108.402" y2="95.9945" gradientUnits="userSpaceOnUse">
<stop stop-color="#0D0625"/>
<stop offset="0.31" stop-color="#271273"/>
<stop offset="1"/>
</linearGradient>
<linearGradient id="paint108_linear_2178_4525" x1="100.316" y1="202.868" x2="100.316" y2="96.0963" gradientUnits="userSpaceOnUse">
<stop stop-color="#A56EF4"/>
<stop offset="1" stop-color="white"/>
</linearGradient>
<linearGradient id="paint109_linear_2178_4525" x1="108.401" y1="202.969" x2="108.401" y2="102.925" gradientUnits="userSpaceOnUse">
<stop stop-color="#20083F"/>
<stop offset="0.43" stop-color="#45108A"/>
<stop offset="0.5" stop-color="#3C0D78"/>
<stop offset="1"/>
</linearGradient>
<linearGradient id="paint110_linear_2178_4525" x1="119.183" y1="123.54" x2="131.038" y2="150.128" gradientUnits="userSpaceOnUse">
<stop stop-color="#13054D"/>
<stop offset="1" stop-color="#45108A"/>
</linearGradient>
<linearGradient id="paint111_linear_2178_4525" x1="91.3542" y1="104.414" x2="109.7" y2="130.95" gradientUnits="userSpaceOnUse">
<stop stop-color="#AD792B"/>
<stop offset="1" stop-color="#45108A"/>
</linearGradient>
<linearGradient id="paint112_linear_2178_4525" x1="122.856" y1="76.3907" x2="104.625" y2="111.094" gradientUnits="userSpaceOnUse">
<stop offset="0.52" stop-color="#C65EF7"/>
<stop offset="1" stop-color="#742AE4"/>
</linearGradient>
<radialGradient id="paint113_radial_2178_4525" cx="0" cy="0" r="1" gradientUnits="userSpaceOnUse" gradientTransform="translate(108.262 109.056) scale(11.9324 11.9434)">
<stop stop-color="white"/>
<stop offset="1"/>
</radialGradient>
<linearGradient id="paint114_linear_2178_4525" x1="124.733" y1="212.838" x2="124.733" y2="136.676" gradientUnits="userSpaceOnUse">
<stop stop-color="#271273"/>
<stop offset="0.19" stop-color="#1F0E5C"/>
<stop offset="1"/>
</linearGradient>
<linearGradient id="paint115_linear_2178_4525" x1="124.733" y1="212.945" x2="124.733" y2="143.606" gradientUnits="userSpaceOnUse">
<stop stop-color="#45108A"/>
<stop offset="0.32" stop-color="#2E0A5C"/>
<stop offset="1"/>
</linearGradient>
<linearGradient id="paint116_linear_2178_4525" x1="135.609" y1="157.685" x2="147.464" y2="184.273" gradientUnits="userSpaceOnUse">
<stop stop-color="#13054D"/>
<stop offset="1" stop-color="#45108A"/>
</linearGradient>
<linearGradient id="paint117_linear_2178_4525" x1="107.78" y1="138.559" x2="126.126" y2="165.094" gradientUnits="userSpaceOnUse">
<stop stop-color="#AD792B"/>
<stop offset="1" stop-color="#45108A"/>
</linearGradient>
<linearGradient id="paint118_linear_2178_4525" x1="139.282" y1="110.535" x2="121.05" y2="145.239" gradientUnits="userSpaceOnUse">
<stop offset="0.52" stop-color="#C65EF7"/>
<stop offset="1" stop-color="#742AE4"/>
</linearGradient>
<radialGradient id="paint119_radial_2178_4525" cx="0" cy="0" r="1" gradientUnits="userSpaceOnUse" gradientTransform="translate(124.688 143.201) scale(11.9324 11.9434)">
<stop stop-color="white"/>
<stop offset="1"/>
</radialGradient>
<linearGradient id="paint120_linear_2178_4525" x1="151.892" y1="209.112" x2="163.747" y2="235.699" gradientUnits="userSpaceOnUse">
<stop stop-color="#13054D"/>
<stop offset="1" stop-color="#45108A"/>
</linearGradient>
<linearGradient id="paint121_linear_2178_4525" x1="124.063" y1="189.986" x2="142.409" y2="216.521" gradientUnits="userSpaceOnUse">
<stop stop-color="#AD792B"/>
<stop offset="1" stop-color="#45108A"/>
</linearGradient>
<linearGradient id="paint122_linear_2178_4525" x1="155.565" y1="161.962" x2="137.334" y2="196.666" gradientUnits="userSpaceOnUse">
<stop offset="0.52" stop-color="#C65EF7"/>
<stop offset="1" stop-color="#742AE4"/>
</linearGradient>
<radialGradient id="paint123_radial_2178_4525" cx="0" cy="0" r="1" gradientUnits="userSpaceOnUse" gradientTransform="translate(140.971 194.628) scale(11.9324 11.9434)">
<stop stop-color="white"/>
<stop offset="1"/>
</radialGradient>
<linearGradient id="paint124_linear_2178_4525" x1="140.971" y1="223.303" x2="140.971" y2="199.591" gradientUnits="userSpaceOnUse">
<stop stop-color="#271273"/>
<stop offset="0.19" stop-color="#1F0E5C"/>
<stop offset="1"/>
</linearGradient>
<linearGradient id="paint125_linear_2178_4525" x1="140.972" y1="223.41" x2="140.972" y2="206.521" gradientUnits="userSpaceOnUse">
<stop stop-color="#45108A"/>
<stop offset="0.32" stop-color="#2E0A5C"/>
<stop offset="1"/>
</linearGradient>
<linearGradient id="paint126_linear_2178_4525" x1="108.262" y1="222.893" x2="108.262" y2="173.81" gradientUnits="userSpaceOnUse">
<stop stop-color="#271273"/>
<stop offset="0.19" stop-color="#1F0E5C"/>
<stop offset="1"/>
</linearGradient>
<linearGradient id="paint127_linear_2178_4525" x1="108.263" y1="222.995" x2="108.263" y2="180.74" gradientUnits="userSpaceOnUse">
<stop stop-color="#45108A"/>
<stop offset="0.32" stop-color="#2E0A5C"/>
<stop offset="1"/>
</linearGradient>
<linearGradient id="paint128_linear_2178_4525" x1="119.183" y1="188.738" x2="131.038" y2="215.325" gradientUnits="userSpaceOnUse">
<stop stop-color="#13054D"/>
<stop offset="1" stop-color="#45108A"/>
</linearGradient>
<linearGradient id="paint129_linear_2178_4525" x1="91.3542" y1="169.612" x2="109.7" y2="196.147" gradientUnits="userSpaceOnUse">
<stop stop-color="#AD792B"/>
<stop offset="1" stop-color="#45108A"/>
</linearGradient>
<linearGradient id="paint130_linear_2178_4525" x1="122.856" y1="141.588" x2="104.625" y2="176.292" gradientUnits="userSpaceOnUse">
<stop offset="0.52" stop-color="#C65EF7"/>
<stop offset="1" stop-color="#742AE4"/>
</linearGradient>
<radialGradient id="paint131_radial_2178_4525" cx="0" cy="0" r="1" gradientUnits="userSpaceOnUse" gradientTransform="translate(108.262 174.254) scale(11.9324 11.9434)">
<stop stop-color="white"/>
<stop offset="1"/>
</radialGradient>
<radialGradient id="paint132_radial_2178_4525" cx="0" cy="0" r="1" gradientUnits="userSpaceOnUse" gradientTransform="translate(163.29 180.473) rotate(157.321) scale(22.6128 19.6502)">
<stop stop-color="#972A74"/>
<stop offset="0.04" stop-color="#8A266A"/>
<stop offset="0.19" stop-color="#601A49"/>
<stop offset="0.35" stop-color="#3D112F"/>
<stop offset="0.51" stop-color="#22091A"/>
<stop offset="0.67" stop-color="#0F040B"/>
<stop offset="0.83" stop-color="#030102"/>
<stop offset="1"/>
</radialGradient>
<radialGradient id="paint133_radial_2178_4525" cx="0" cy="0" r="1" gradientUnits="userSpaceOnUse" gradientTransform="translate(114.421 154.053) rotate(157.321) scale(22.6128 19.6502)">
<stop stop-color="#972A74"/>
<stop offset="0.04" stop-color="#8A266A"/>
<stop offset="0.19" stop-color="#601A49"/>
<stop offset="0.35" stop-color="#3D112F"/>
<stop offset="0.51" stop-color="#22091A"/>
<stop offset="0.67" stop-color="#0F040B"/>
<stop offset="0.83" stop-color="#030102"/>
<stop offset="1"/>
</radialGradient>
<radialGradient id="paint134_radial_2178_4525" cx="0" cy="0" r="1" gradientUnits="userSpaceOnUse" gradientTransform="translate(163.789 114.996) rotate(157.321) scale(22.6128 19.6502)">
<stop stop-color="#972A74"/>
<stop offset="0.04" stop-color="#8A266A"/>
<stop offset="0.19" stop-color="#601A49"/>
<stop offset="0.35" stop-color="#3D112F"/>
<stop offset="0.51" stop-color="#22091A"/>
<stop offset="0.67" stop-color="#0F040B"/>
<stop offset="0.83" stop-color="#030102"/>
<stop offset="1"/>
</radialGradient>
<clipPath id="clip0_2178_4525">
<rect width="173" height="204.753" fill="white" transform="translate(68.5625 51.1885)"/>
</clipPath>
</defs>
</svg>
