<?xml version="1.0" standalone="no"?>
<!DOCTYPE svg PUBLIC "-//W3C//DTD SVG 20010904//EN"
 "http://www.w3.org/TR/2001/REC-SVG-20010904/DTD/svg10.dtd">
<svg version="1.0" xmlns="http://www.w3.org/2000/svg"
 width="770.000000pt" height="903.000000pt" viewBox="0 0 770.000000 903.000000"
 preserveAspectRatio="xMidYMid meet">

<g transform="translate(0.000000,903.000000) scale(0.100000,-0.100000)"
fill="#000000" stroke="none">
<path d="M6160 4350 c-25 -4 -83 -13 -130 -20 -47 -7 -99 -19 -116 -26 -17 -7
-42 -14 -55 -16 -13 -2 -29 -6 -34 -10 -6 -3 -27 -9 -48 -13 -20 -4 -40 -11
-43 -16 -3 -5 -9 -7 -14 -4 -5 3 -19 1 -31 -5 -11 -7 -33 -14 -47 -16 -15 -3
-40 -11 -57 -19 -48 -22 -240 -86 -264 -88 -11 -1 -21 -5 -21 -9 0 -4 -6 -8
-14 -8 -8 0 -43 -13 -79 -29 -36 -16 -68 -27 -71 -24 -3 4 -6 1 -6 -5 0 -10
-84 -43 -104 -41 -5 0 -13 -5 -17 -13 -7 -10 -9 -10 -9 0 0 6 -5 12 -11 12 -5
0 -8 -4 -5 -9 3 -5 -9 -12 -27 -16 -17 -4 -35 -9 -39 -10 -5 -1 -12 -3 -18 -4
-5 0 -10 -8 -10 -16 0 -13 -34 -39 -52 -40 -4 0 -13 -6 -19 -12 -7 -7 -19 -13
-26 -13 -7 0 -10 -7 -6 -17 5 -12 3 -14 -8 -8 -11 7 -11 5 1 -10 14 -17 13
-18 -2 -12 -12 4 -15 2 -12 -7 3 -8 0 -17 -5 -21 -6 -3 -8 -11 -5 -17 4 -7 2
-8 -4 -4 -7 4 -17 4 -23 0 -8 -4 -7 -9 2 -15 11 -7 9 -9 -6 -10 l-20 0 20 -9
c17 -7 17 -9 3 -9 -10 -1 -18 -6 -18 -12 0 -5 5 -7 10 -4 6 3 10 1 10 -4 0
-17 -18 -13 -29 7 -14 24 -14 6 1 -21 11 -21 10 -21 -7 -7 -17 14 -18 13 -12
-2 3 -10 2 -20 -4 -24 -6 -3 -8 -13 -5 -21 3 -8 1 -11 -4 -8 -6 3 -10 1 -10
-4 0 -6 4 -11 9 -11 6 0 9 -9 8 -20 -1 -11 -7 -20 -13 -20 -17 0 -24 -26 -11
-40 9 -10 9 -11 -2 -5 -10 6 -12 2 -6 -14 5 -15 2 -21 -10 -21 -9 0 -14 -4
-10 -9 3 -6 -3 -14 -12 -20 -10 -5 -15 -13 -11 -17 5 -4 2 -14 -5 -22 -6 -9
-7 -13 -1 -9 6 3 11 0 11 -7 0 -8 -6 -12 -13 -9 -9 3 -12 -2 -9 -17 3 -17 1
-19 -9 -11 -18 15 -30 -11 -13 -28 8 -8 8 -11 -2 -11 -11 0 -11 -3 -1 -15 11
-13 10 -14 -5 -8 -14 5 -17 3 -12 -10 4 -10 2 -16 -6 -14 -7 1 -11 -6 -11 -15
1 -10 -2 -18 -8 -18 -5 0 -6 -4 -3 -10 3 -5 2 -10 -4 -10 -6 0 -8 -7 -4 -15 3
-9 2 -15 -3 -14 -22 4 -34 -2 -34 -16 0 -8 -4 -15 -10 -15 -5 0 -6 -8 -3 -17
5 -12 2 -15 -10 -10 -9 3 -17 2 -17 -3 0 -6 5 -10 10 -10 6 0 3 -11 -7 -24
-10 -13 -21 -22 -25 -19 -4 2 -5 -3 -2 -11 3 -9 11 -13 18 -10 6 3 3 -1 -8
-10 -11 -9 -17 -23 -13 -35 3 -11 0 -22 -7 -25 -6 -2 -2 -5 8 -5 19 -1 19 -1
1 -15 -17 -12 -18 -16 -5 -32 13 -16 13 -17 0 -9 -21 13 -33 13 -47 -2 -18
-17 -17 -44 2 -37 8 4 12 10 9 15 -3 5 -1 9 5 9 5 0 9 -9 8 -19 0 -11 -4 -18
-8 -15 -4 2 -10 -3 -13 -12 -10 -25 -7 -36 7 -28 8 6 8 3 -1 -9 -14 -16 -9
-37 9 -37 6 0 7 5 3 12 -4 7 -3 8 4 4 7 -4 12 -1 12 8 0 9 4 16 8 16 5 0 9 -7
9 -15 0 -8 -4 -15 -9 -15 -5 0 -6 -5 -2 -12 4 -7 3 -8 -4 -4 -7 4 -12 2 -12
-3 0 -6 -8 -11 -17 -11 -13 0 -14 -3 -5 -12 9 -9 17 -7 35 10 13 12 27 22 32
22 4 0 23 11 41 25 29 22 34 23 42 9 8 -15 10 -15 15 0 4 9 14 16 23 16 9 0
23 8 31 18 14 16 14 16 9 -1 -7 -21 6 -16 41 16 12 10 26 16 31 13 5 -3 13 4
17 17 4 13 8 17 11 10 4 -10 13 -9 37 4 18 10 35 16 40 15 4 -1 7 2 7 8 0 5 6
10 14 10 8 0 22 10 30 22 9 12 16 19 16 15 0 -4 33 18 74 48 205 151 472 314
874 534 249 136 359 202 479 288 192 137 362 307 344 341 -20 38 -65 71 -129
97 -55 23 -85 28 -167 30 -55 1 -120 -1 -145 -5z m-1660 -1150 c0 -5 -2 -10
-4 -10 -3 0 -8 5 -11 10 -3 6 -1 10 4 10 6 0 11 -4 11 -10z m-50 -84 c0 -3 -4
-8 -10 -11 -5 -3 -10 -1 -10 4 0 6 5 11 10 11 6 0 10 -2 10 -4z m0 -240 c0 -2
-8 -10 -17 -17 -16 -13 -17 -12 -4 4 13 16 21 21 21 13z"/>
<path d="M4435 3199 c-4 -6 -5 -12 -2 -15 2 -3 7 2 10 11 7 17 1 20 -8 4z"/>
<path d="M4476 2834 c-5 -14 -4 -15 9 -4 17 14 19 20 6 20 -5 0 -12 -7 -15
-16z"/>
</g>
</svg>
