<svg width="311" height="233" viewBox="0 0 311 233" fill="none" xmlns="http://www.w3.org/2000/svg">
<path d="M303.74 26.8C300.874 17.5467 297.165 8.57576 292.66 0L265.18 11.41L27.48 110.08L0 121.48C2.89424 130.725 6.63682 139.684 11.18 148.24C29.7244 183.244 60.6616 210.07 97.9393 223.47C135.217 236.87 176.153 235.88 212.74 220.693C249.326 205.507 278.93 177.216 295.76 141.356C312.59 105.496 315.436 64.6471 303.74 26.8ZM151.74 203.34C128.666 203.347 106.009 197.185 86.1166 185.493C66.2241 173.801 49.8189 157.003 38.6 136.84L276.2 38.21C281.71 57.4774 282.673 77.7605 279.015 97.4635C275.357 117.166 267.177 135.752 255.118 151.757C243.059 167.763 227.451 180.752 209.521 189.703C191.592 198.653 171.83 203.322 151.79 203.34H151.74Z" fill="url(#paint0_linear_1754_8801)"/>
<path d="M113.92 157.68C109.05 167.44 104.03 167.46 99.0799 164.99C94.1299 162.52 91.0799 158.49 95.9899 148.73C100.9 138.97 111.04 126.53 115.99 129.08C120.28 131.33 118.79 147.92 113.92 157.68Z" fill="#06E2F4"/>
<path d="M170.08 161.67C168.88 172.51 164.18 174.26 158.68 173.67C153.18 173.08 148.97 170.32 150.17 159.48C151.37 148.64 156.62 133.48 162.11 134.14C167 134.74 171.29 150.83 170.08 161.67Z" fill="#06E2F4"/>
<path d="M219.1 139.87C224.52 149.34 221.74 153.53 216.94 156.28C212.14 159.03 207.12 159.28 201.71 149.82C196.3 140.36 191.59 124.98 196.43 122.31C200.71 120 213.69 130.41 219.1 139.87Z" fill="#06E2F4"/>
<path d="M250.58 93.1402C259.42 99.5302 258.58 104.48 255.39 108.97C252.2 113.46 247.69 115.77 238.85 109.38C230.01 102.99 219.37 90.9402 222.68 86.5102C225.61 82.6002 241.74 86.7502 250.58 93.1402Z" fill="#06E2F4"/>
<defs>
<linearGradient id="paint0_linear_1754_8801" x1="139.36" y1="75.15" x2="288.44" y2="183.02" gradientUnits="userSpaceOnUse">
<stop stop-color="#00D8FF"/>
<stop offset="0.95" stop-color="#B9FE0F"/>
</linearGradient>
</defs>
</svg>
