<svg width="24" height="24" viewBox="0 0 24 24" fill="none" xmlns="http://www.w3.org/2000/svg">
<g id="&#240;&#159;&#166;&#134; icon &#34;premium&#34;">
<path id="Vector" fill-rule="evenodd" clip-rule="evenodd" d="M9.28419 3.42474L7.05099 9.08631L1.39174 11.3172C1.22273 11.3843 1.07776 11.5005 0.975603 11.651C0.873462 11.8015 0.818848 11.979 0.818848 12.1609C0.818848 12.3427 0.873462 12.5204 0.975603 12.6708C1.07776 12.8212 1.22273 12.9375 1.39174 13.0046L7.05099 15.2367L9.28419 20.8959C9.35127 21.0649 9.46755 21.2099 9.61799 21.3121C9.76842 21.4141 9.94607 21.4688 10.1279 21.4688C10.3098 21.4688 10.4874 21.4141 10.6378 21.3121C10.7882 21.2099 10.9046 21.0649 10.9716 20.8959L13.2025 15.2367L18.8629 13.0035C19.0314 12.936 19.1759 12.8195 19.2776 12.6691C19.3795 12.5187 19.4338 12.3413 19.4338 12.1598C19.4338 11.9781 19.3795 11.8008 19.2776 11.6504C19.1759 11.5 19.0314 11.3836 18.8629 11.3161L13.2025 9.08631L10.9704 3.42474C10.9248 3.30911 10.8557 3.20415 10.7676 3.11644C10.6795 3.02874 10.5742 2.96016 10.4584 2.91502C10.3477 2.87125 10.2296 2.84971 10.1106 2.85163C9.99165 2.85356 9.87423 2.87892 9.76507 2.92626C9.65591 2.9736 9.55715 3.04199 9.47444 3.12752C9.39172 3.21305 9.32668 3.31405 9.28303 3.42474H9.28419ZM18.9397 1.06235L18.075 3.25716L15.8826 4.12181C15.7624 4.17055 15.6594 4.25406 15.5869 4.36166C15.5144 4.46926 15.4756 4.59606 15.4756 4.72579C15.4756 4.85554 15.5144 4.98232 15.5869 5.08994C15.6594 5.19753 15.7624 5.28104 15.8826 5.32977L18.075 6.19442L18.9397 8.38923C18.9875 8.5104 19.0707 8.61438 19.1785 8.68764C19.2861 8.76091 19.4135 8.8001 19.5437 8.8001C19.6739 8.8001 19.8012 8.76091 19.909 8.68764C20.0166 8.61438 20.0998 8.5104 20.1477 8.38923L21.0146 6.19442L23.206 5.32977C23.3276 5.28238 23.4321 5.19937 23.5057 5.0916C23.5794 4.98384 23.6188 4.85634 23.6188 4.72579C23.6188 4.59525 23.5794 4.46776 23.5057 4.35998C23.4321 4.25222 23.3276 4.16921 23.206 4.12181L21.0146 3.25716L20.1477 1.06352C20.1154 0.980635 20.0662 0.905353 20.0034 0.842453C19.9404 0.779553 19.8651 0.730397 19.7822 0.698103C19.622 0.6361 19.4437 0.639673 19.286 0.708054C19.1283 0.776435 19.0039 0.902968 18.9397 1.06235ZM18.1204 16.1944L17.2546 18.3857L15.0633 19.2516C14.98 19.2836 14.9043 19.3327 14.841 19.3955C14.7777 19.4585 14.7281 19.5339 14.6956 19.617C14.6331 19.7775 14.6367 19.9562 14.7056 20.1141C14.7745 20.272 14.9031 20.3962 15.0633 20.4595L17.2546 21.3242L18.1204 23.5167C18.1868 23.6842 18.3183 23.8169 18.4858 23.8832C18.6462 23.9457 18.8248 23.9423 18.9828 23.8737C19.1406 23.805 19.2648 23.6767 19.3284 23.5167L20.1942 21.3242L22.3855 20.4595C22.5071 20.4122 22.6116 20.3291 22.6853 20.2213C22.759 20.1135 22.7984 19.986 22.7984 19.8555C22.7984 19.725 22.759 19.5974 22.6853 19.4897C22.6116 19.3819 22.5071 19.2989 22.3855 19.2516L20.1942 18.3857L19.3284 16.1944C19.2963 16.1109 19.2472 16.0351 19.184 15.9718C19.1209 15.9084 19.0451 15.859 18.9618 15.8267C18.8014 15.7646 18.6229 15.7683 18.4654 15.8372C18.3078 15.9061 18.1837 16.0344 18.1204 16.1944Z" fill="black"/>
</g>
</svg>
