<svg width="22" height="22" viewBox="0 0 22 22" fill="none" xmlns="http://www.w3.org/2000/svg">
<g id="&#240;&#159;&#166;&#134; icon &#34;dashboard customize&#34;">
<path id="Vector" d="M0 4.9537C0 2.2823 2.1656 0.116699 4.837 0.116699C7.5084 0.116699 9.674 2.2823 9.674 4.9537C9.674 7.6251 7.5084 9.7907 4.837 9.7907C2.1656 9.7907 0 7.6251 0 4.9537ZM12.0925 4.9537C12.0925 2.2823 14.2581 0.116699 16.9295 0.116699C19.6009 0.116699 21.7665 2.2823 21.7665 4.9537C21.7665 7.6251 19.6009 9.7907 16.9295 9.7907C14.2581 9.7907 12.0925 7.6251 12.0925 4.9537ZM0 17.0462C0 14.3748 2.1656 12.2092 4.837 12.2092C7.5084 12.2092 9.674 14.3748 9.674 17.0462C9.674 19.7176 7.5084 21.8832 4.837 21.8832C2.1656 21.8832 0 19.7176 0 17.0462ZM18.1387 13.4184C18.1387 12.7506 17.5973 12.2092 16.9295 12.2092C16.2616 12.2092 15.7202 12.7506 15.7202 13.4184V15.8369H13.3018C12.6339 15.8369 12.0925 16.3783 12.0925 17.0462C12.0925 17.714 12.6339 18.2554 13.3017 18.2554H15.7202V20.6739C15.7202 21.3418 16.2616 21.8832 16.9295 21.8832C17.5973 21.8832 18.1387 21.3418 18.1387 20.6739V18.2554H20.5572C21.2251 18.2554 21.7665 17.714 21.7665 17.0462C21.7665 16.3783 21.2251 15.8369 20.5572 15.8369H18.1387V13.4184Z" fill="white"/>
</g>
</svg>
