<svg width="25" height="22" viewBox="0 0 25 22" fill="none" xmlns="http://www.w3.org/2000/svg">
<g id="&#240;&#159;&#166;&#134; icon &#34;Wallet&#34;">
<path id="Vector" d="M22.1832 4.95618H4.31445C3.90008 4.95618 3.56445 4.62055 3.56445 4.20618C3.56445 3.7918 3.90008 3.45618 4.31445 3.45618H22.3145C22.7288 3.45618 23.0645 3.12055 23.0645 2.70618C23.0645 1.46352 22.0571 0.456177 20.8145 0.456177H3.56445C1.90742 0.456177 0.564453 1.79915 0.564453 3.45618V18.4562C0.564453 20.1132 1.90742 21.4562 3.56445 21.4562H22.1832C23.4966 21.4562 24.5645 20.447 24.5645 19.2062V7.20618C24.5645 5.96539 23.4966 4.95618 22.1832 4.95618ZM20.0645 14.7062C19.2362 14.7062 18.5645 14.0345 18.5645 13.2062C18.5645 12.3779 19.2362 11.7062 20.0645 11.7062C20.8927 11.7062 21.5645 12.3779 21.5645 13.2062C21.5645 14.0345 20.8927 14.7062 20.0645 14.7062Z" fill="black"/>
</g>
</svg>
