<svg width="23" height="23" viewBox="0 0 23 23" fill="none" xmlns="http://www.w3.org/2000/svg">
<g id="&#240;&#159;&#166;&#134; icon &#34;purchase tag&#34;">
<path id="Vector" d="M12.449 1.29186C12.0299 0.872692 11.4609 0.636841 10.8685 0.636841H2.85177C1.61774 0.636841 0.616211 1.63837 0.616211 2.8724V10.8891C0.616211 11.4815 0.852062 12.0505 1.27123 12.4697L10.2135 21.4119C11.0865 22.2849 12.5016 22.2849 13.3745 21.4119L21.3913 13.3952C22.2643 12.5222 22.2643 11.1071 21.3913 10.2341L12.449 1.29186ZM6.20511 8.4613C4.97108 8.4613 3.96955 7.45977 3.96955 6.22574C3.96955 4.99171 4.97108 3.99018 6.20511 3.99018C7.43914 3.99018 8.44067 4.99171 8.44067 6.22574C8.44067 7.45977 7.43914 8.4613 6.20511 8.4613Z" fill="black"/>
</g>
</svg>
